<svg id="Layer_1" data-name="Layer 1" xmlns="http://www.w3.org/2000/svg" viewBox="0 0 251.43 334.21"><defs><style>.cls-1{fill:#f4f3ef;}.cls-2{fill:#272528;}</style></defs><rect class="cls-1" width="251.43" height="334.21" rx="21.02"/><path class="cls-2" d="M37.92,83.68c.67,0,1.08.11,1.48.11,9.35,0,18.71.08,28.06-.09a49.88,49.88,0,0,0,9-1.31A8.69,8.69,0,0,0,82.8,77a1.81,1.81,0,0,1,2.11-1.32c.92.09,1.85,0,2.86,0-.26,7.07-3.06,13.8-1.89,21H28.93a25,25,0,0,1,1-8C32.18,81,36.81,74.88,42.67,69.67s12.1-10.45,18-15.83c3.32-3,6.21-6.51,7.66-10.89A14.72,14.72,0,0,0,68,32.4C66,27.67,62,26,57.37,26.21c-8.31.46-11.74,7.87-9.82,15a28.18,28.18,0,0,1,.9,6.46A4.75,4.75,0,0,1,46,51.86c-6,3.76-14.58,1.51-15.72-7.58-1.08-8.61,2.94-15.2,10.48-19.21,6.81-3.64,14.27-4.58,21.91-4A38.65,38.65,0,0,1,76.4,24.6c12.87,6.14,13.42,22.17,5,30.57-4,4-8.83,6.55-13.69,9.15-6.67,3.57-13.43,7-20.06,10.62a28.17,28.17,0,0,0-9,7.69C38.42,82.89,38.26,83.17,37.92,83.68Z"/><path class="cls-2" d="M81.94,145.18a13.6,13.6,0,0,0-16.21-2.29h0a.92.92,0,0,1-.21.13l-.24.14a1.29,1.29,0,0,1-1.36-.27,1.27,1.27,0,0,1-.37-.91,1.22,1.22,0,0,1,.37-.9l0,0A14.23,14.23,0,0,0,66,139.28a13.62,13.62,0,1,0-19.26,0A13.69,13.69,0,0,0,49,141.05l0,0a1.28,1.28,0,0,1,0,1.81,1.26,1.26,0,0,1-.9.37h0a1.26,1.26,0,0,1-.9-.37l0,0a13.63,13.63,0,0,0-16.25,2.26,13.62,13.62,0,1,0,23.1,11.54.75.75,0,0,1,1.43.32c0,.08-.63,8.93-2.43,14.05s-4,5.47-4,5.48l-.13,0v2.13H64v-2.13l-.13,0s-2.29-.44-4-5.48-2.43-14-2.44-14a.76.76,0,0,1,1.44-.33,13.61,13.61,0,1,0,23.1-11.54Z"/><path class="cls-2" d="M224.68,242.5a29.86,29.86,0,0,0-35.55-5v0a2.27,2.27,0,0,1-.46.3l-.51.31a2.87,2.87,0,0,1-3-.61,2.82,2.82,0,0,1-.82-2,2.74,2.74,0,0,1,.83-2l-.1-.1a29.9,29.9,0,1,0-32.74.06l0,0a2.79,2.79,0,0,1,0,4,2.83,2.83,0,0,1-2,.83h0a2.83,2.83,0,0,1-2-.83l-.09.09a29.89,29.89,0,1,0,15,30.27,1.65,1.65,0,0,1,3.14.69c0,.19-1.39,19.58-5.34,30.83-3.86,11-8.83,12-8.88,12l-.28,0v4.69h33.46v-4.68l-.28-.05c-.05,0-5-1-8.88-12-3.94-11.25-5.33-30.64-5.34-30.81a1.65,1.65,0,0,1,3.15-.7,29.85,29.85,0,1,0,50.66-25.32Z"/></svg>