<svg id="Layer_1" data-name="Layer 1" xmlns="http://www.w3.org/2000/svg" viewBox="0 0 251.43 334.21"><defs><style>.cls-1{fill:#f4f3ef;}.cls-2{fill:#e12140;}</style></defs><rect class="cls-1" width="251.43" height="334.21" rx="21.02"/><path class="cls-2" d="M37.92,83.68c.67,0,1.08.11,1.48.11,9.35,0,18.71.08,28.06-.09a49.88,49.88,0,0,0,9-1.31A8.69,8.69,0,0,0,82.8,77a1.81,1.81,0,0,1,2.11-1.32c.92.09,1.85,0,2.86,0-.26,7.07-3.06,13.8-1.89,21H28.93a25,25,0,0,1,1-8C32.18,81,36.81,74.88,42.67,69.67s12.1-10.45,18-15.83c3.32-3,6.21-6.51,7.66-10.89A14.72,14.72,0,0,0,68,32.4C66,27.67,62,26,57.37,26.21c-8.31.46-11.74,7.87-9.82,15a28.18,28.18,0,0,1,.9,6.46A4.75,4.75,0,0,1,46,51.86c-6,3.76-14.58,1.51-15.72-7.58-1.08-8.61,2.94-15.2,10.48-19.21,6.81-3.64,14.27-4.58,21.91-4A38.65,38.65,0,0,1,76.4,24.6c12.87,6.14,13.42,22.17,5,30.57-4,4-8.83,6.55-13.69,9.15-6.67,3.57-13.43,7-20.06,10.62a28.17,28.17,0,0,0-9,7.69C38.42,82.89,38.26,83.17,37.92,83.68Z"/><path class="cls-2" d="M55.82,115.94c-3.27,8.32-19.86,27.49-26.68,30.73a.52.52,0,0,0,0,1C36,151,52.54,170.44,55.82,178.81a.63.63,0,0,0,1.14,0c3.28-8.37,19.87-27.83,26.68-31.18a.52.52,0,0,0,0-1c-6.82-3.24-23.41-22.41-26.68-30.73A.63.63,0,0,0,55.82,115.94Z"/><path class="cls-2" d="M167.4,178.39c-7.19,18.24-43.56,60.27-58.51,67.38a1.14,1.14,0,0,0,0,2.11c14.94,7.34,51.34,50,58.53,68.38a1.37,1.37,0,0,0,2.49,0c7.18-18.37,43.58-61,58.52-68.38a1.14,1.14,0,0,0,0-2.11c-14.95-7.11-51.32-49.14-58.5-67.38A1.37,1.37,0,0,0,167.4,178.39Z"/></svg>