<svg id="Layer_1" data-name="Layer 1" xmlns="http://www.w3.org/2000/svg" viewBox="0 0 251.43 334.21"><defs><style>.cls-1{fill:#f4f3ef;}.cls-2{fill:#e12140;}</style></defs><rect class="cls-1" width="251.43" height="334.21" rx="21.02"/><path class="cls-2" d="M37.92,83.68c.67,0,1.08.11,1.48.11,9.35,0,18.71.08,28.06-.09a49.88,49.88,0,0,0,9-1.31A8.69,8.69,0,0,0,82.8,77a1.81,1.81,0,0,1,2.11-1.32c.92.09,1.85,0,2.86,0-.26,7.07-3.06,13.8-1.89,21H28.93a25,25,0,0,1,1-8C32.18,81,36.81,74.88,42.67,69.67s12.1-10.45,18-15.83c3.32-3,6.21-6.51,7.66-10.89A14.72,14.72,0,0,0,68,32.4C66,27.67,62,26,57.37,26.21c-8.31.46-11.74,7.87-9.82,15a28.18,28.18,0,0,1,.9,6.46A4.75,4.75,0,0,1,46,51.86c-6,3.76-14.58,1.51-15.72-7.58-1.08-8.61,2.94-15.2,10.48-19.21,6.81-3.64,14.27-4.58,21.91-4A38.65,38.65,0,0,1,76.4,24.6c12.87,6.14,13.42,22.17,5,30.57-4,4-8.83,6.55-13.69,9.15-6.67,3.57-13.43,7-20.06,10.62a28.17,28.17,0,0,0-9,7.69C38.42,82.89,38.26,83.17,37.92,83.68Z"/><path class="cls-2" d="M70.15,118.28c-7.6,0-13.76,5.73-13.76,12.8,0-7.07-6.16-12.8-13.76-12.8S28.87,124,28.87,131.08v0c0,10,5.63,15.21,14.22,24.68A79.67,79.67,0,0,1,56,176.16a.46.46,0,0,0,.88,0,79.67,79.67,0,0,1,12.86-20.37c8.58-9.47,14.22-14.66,14.22-24.68v0C83.91,124,77.75,118.28,70.15,118.28Z"/><path class="cls-2" d="M198.82,183.52c-16.67,0-30.18,12.56-30.18,28.06,0-15.5-13.51-28.06-30.18-28.06s-30.17,12.56-30.17,28.06v.07c0,22,12.36,33.35,31.18,54.13,15.48,17.08,25.23,37.82,28.2,44.66a1,1,0,0,0,1.94,0c3-6.84,12.72-27.58,28.2-44.66C216.63,245,229,233.63,229,211.65v-.07C229,196.08,215.49,183.52,198.82,183.52Z"/></svg>