<svg id="Layer_1" data-name="Layer 1" xmlns="http://www.w3.org/2000/svg" viewBox="0 0 251.43 334.21"><defs><style>.cls-1{fill:#f4f3ef;}.cls-2{fill:#272528;}</style></defs><rect class="cls-1" width="251.43" height="334.21" rx="21.02"/><path class="cls-2" d="M37.92,83.68c.67,0,1.08.11,1.48.11,9.35,0,18.71.08,28.06-.09a49.88,49.88,0,0,0,9-1.31A8.69,8.69,0,0,0,82.8,77a1.81,1.81,0,0,1,2.11-1.32c.92.09,1.85,0,2.86,0-.26,7.07-3.06,13.8-1.89,21H28.93a25,25,0,0,1,1-8C32.18,81,36.81,74.88,42.67,69.67s12.1-10.45,18-15.83c3.32-3,6.21-6.51,7.66-10.89A14.72,14.72,0,0,0,68,32.4C66,27.67,62,26,57.37,26.21c-8.31.46-11.74,7.87-9.82,15a28.18,28.18,0,0,1,.9,6.46A4.75,4.75,0,0,1,46,51.86c-6,3.76-14.58,1.51-15.72-7.58-1.08-8.61,2.94-15.2,10.48-19.21,6.81-3.64,14.27-4.58,21.91-4A38.65,38.65,0,0,1,76.4,24.6c12.87,6.14,13.42,22.17,5,30.57-4,4-8.83,6.55-13.69,9.15-6.67,3.57-13.43,7-20.06,10.62a28.17,28.17,0,0,0-9,7.69C38.42,82.89,38.26,83.17,37.92,83.68Z"/><path class="cls-2" d="M57.06,116h0a.94.94,0,0,0-1.34,0h0c-4.18,3.76-26.38,24.5-26.38,39.8,0,13,9.2,14,12,14s12.45-1.49,12.45-13.24a.8.8,0,0,1,.8-.8.78.78,0,0,1,.8.78h2a.8.8,0,0,1,1.6,0c0,11.75,9.69,13.24,12.47,13.24s12-1,12-14C83.44,140.5,61.24,119.76,57.06,116Z"/><path class="cls-2" d="M63.89,176.88s-2.29-.44-4-5.47-2.43-14.73-2.43-14.81h-2c0,.09-.63,9.69-2.43,14.82s-4,5.46-4,5.47l-.13,0V179H64V176.9Z"/><path class="cls-2" d="M170.12,178.51h0a2.07,2.07,0,0,0-1.48-.61,2.05,2.05,0,0,0-1.47.61h0c-9.16,8.26-57.83,53.72-57.83,87.28,0,28.53,20.17,30.78,26.28,30.78s27.29-3.25,27.29-29a1.76,1.76,0,0,1,1.76-1.76,1.74,1.74,0,0,1,1.76,1.73h4.4a1.76,1.76,0,0,1,3.51,0c0,25.78,21.24,29,27.35,29S228,294.32,228,265.79C228,232.23,179.28,186.77,170.12,178.51Z"/><path class="cls-2" d="M185.09,312s-5-1-8.88-12c-3.94-11.24-5.33-32.29-5.34-32.46l-4.45,0c0,.2-1.4,21.25-5.34,32.49-3.87,11-8.84,12-8.89,12l-.28,0v4.69h33.46v-4.69Z"/></svg>