<svg id="Layer_1" data-name="Layer 1" xmlns="http://www.w3.org/2000/svg" viewBox="0 0 251.43 334.21"><defs><style>.cls-1{fill:#f4f3ef;}.cls-2{fill:#272528;}</style></defs><rect class="cls-1" width="251.43" height="334.21" rx="21.02"/><path class="cls-2" d="M50.88,56.78c3.39-1.61,6.59-3,9.67-4.64,5.36-2.85,7.61-7.51,7.27-13.45A21.48,21.48,0,0,0,67,33.32a9.68,9.68,0,0,0-7.65-6.83,14.4,14.4,0,0,0-8,.4c-3.07,1.15-4.44,3.75-5,6.77a43.08,43.08,0,0,0-.55,5.56c-.18,3.24-1.79,5.87-4.44,6.69-3.06.94-6.1,1-8.42-1.63s-2.42-5.8-1.61-9c1.23-4.84,4.44-8.11,8.7-10.46A32.37,32.37,0,0,1,54.53,21.1a48.26,48.26,0,0,1,13.78,1c5.73,1.42,10.71,4,13.45,9.6s2,13.62-4.78,17.74c-1.73,1.06-3.58,2-5.51,3,1.39.27,2.75.44,4.06.8,9.55,2.61,14.88,11,13.88,20.77C88.32,84.6,81.9,91.1,72.49,95c-9.82,4-19.89,3.87-29.9.68a23.35,23.35,0,0,1-12.77-9.12,15.53,15.53,0,0,1-2.44-11.38c.77-4.86,5.19-7.4,10.29-6.21,3.31.78,4.8,2.68,5.23,7a24.43,24.43,0,0,0,4.59,11.86c2.82,4,6.79,5.06,11.4,4.85,7.77-.34,11.47-6.52,13-12.36A24.69,24.69,0,0,0,72,68.53a12.13,12.13,0,0,0-16.11-9.11c-.93.3-1.8.78-2.74,1A1.28,1.28,0,0,1,52,60.08C51.56,59,51.23,57.82,50.88,56.78Z"/><path class="cls-2" d="M81.94,145.18a13.6,13.6,0,0,0-16.21-2.29h0a.92.92,0,0,1-.21.13l-.24.14a1.29,1.29,0,0,1-1.36-.27,1.27,1.27,0,0,1-.37-.91,1.22,1.22,0,0,1,.37-.9l0,0A14.23,14.23,0,0,0,66,139.28a13.62,13.62,0,1,0-19.26,0A13.69,13.69,0,0,0,49,141.05l0,0a1.28,1.28,0,0,1,0,1.81,1.26,1.26,0,0,1-.9.37h0a1.26,1.26,0,0,1-.9-.37l0,0a13.63,13.63,0,0,0-16.25,2.26,13.62,13.62,0,1,0,23.1,11.54.75.75,0,0,1,1.43.32c0,.08-.63,8.93-2.43,14.05s-4,5.47-4,5.48l-.13,0v2.13H64v-2.13l-.13,0s-2.29-.44-4-5.48-2.43-14-2.44-14a.76.76,0,0,1,1.44-.33,13.61,13.61,0,1,0,23.1-11.54Z"/><path class="cls-2" d="M224.68,242.5a29.86,29.86,0,0,0-35.55-5v0a2.27,2.27,0,0,1-.46.3l-.51.31a2.87,2.87,0,0,1-3-.61,2.82,2.82,0,0,1-.82-2,2.74,2.74,0,0,1,.83-2l-.1-.1a29.9,29.9,0,1,0-32.74.06l0,0a2.79,2.79,0,0,1,0,4,2.83,2.83,0,0,1-2,.83h0a2.83,2.83,0,0,1-2-.83l-.09.09a29.89,29.89,0,1,0,15,30.27,1.65,1.65,0,0,1,3.14.69c0,.19-1.39,19.58-5.34,30.83-3.86,11-8.83,12-8.88,12l-.28,0v4.69h33.46v-4.68l-.28-.05c-.05,0-5-1-8.88-12-3.94-11.25-5.33-30.64-5.34-30.81a1.65,1.65,0,0,1,3.15-.7,29.85,29.85,0,1,0,50.66-25.32Z"/></svg>