<svg id="Layer_1" data-name="Layer 1" xmlns="http://www.w3.org/2000/svg" viewBox="0 0 251.43 334.21"><defs><style>.cls-1{fill:#f4f3ef;}.cls-2{fill:#e12140;}</style></defs><rect class="cls-1" width="251.43" height="334.21" rx="21.02"/><path class="cls-2" d="M50.88,56.78c3.39-1.61,6.59-3,9.67-4.64,5.36-2.85,7.61-7.51,7.27-13.45A21.48,21.48,0,0,0,67,33.32a9.68,9.68,0,0,0-7.65-6.83,14.4,14.4,0,0,0-8,.4c-3.07,1.15-4.44,3.75-5,6.77a43.08,43.08,0,0,0-.55,5.56c-.18,3.24-1.79,5.87-4.44,6.69-3.06.94-6.1,1-8.42-1.63s-2.42-5.8-1.61-9c1.23-4.84,4.44-8.11,8.7-10.46A32.37,32.37,0,0,1,54.53,21.1a48.26,48.26,0,0,1,13.78,1c5.73,1.42,10.71,4,13.45,9.6s2,13.62-4.78,17.74c-1.73,1.06-3.58,2-5.51,3,1.39.27,2.75.44,4.06.8,9.55,2.61,14.88,11,13.88,20.77C88.32,84.6,81.9,91.1,72.49,95c-9.82,4-19.89,3.87-29.9.68a23.35,23.35,0,0,1-12.77-9.12,15.53,15.53,0,0,1-2.44-11.38c.77-4.86,5.19-7.4,10.29-6.21,3.31.78,4.8,2.68,5.23,7a24.43,24.43,0,0,0,4.59,11.86c2.82,4,6.79,5.06,11.4,4.85,7.77-.34,11.47-6.52,13-12.36A24.69,24.69,0,0,0,72,68.53a12.13,12.13,0,0,0-16.11-9.11c-.93.3-1.8.78-2.74,1A1.28,1.28,0,0,1,52,60.08C51.56,59,51.23,57.82,50.88,56.78Z"/><path class="cls-2" d="M55.82,115.94c-3.27,8.32-19.86,27.49-26.68,30.73a.52.52,0,0,0,0,1C36,151,52.54,170.44,55.82,178.81a.63.63,0,0,0,1.14,0c3.28-8.37,19.87-27.83,26.68-31.18a.52.52,0,0,0,0-1c-6.82-3.24-23.41-22.41-26.68-30.73A.63.63,0,0,0,55.82,115.94Z"/><path class="cls-2" d="M167.4,178.39c-7.19,18.24-43.56,60.27-58.51,67.38a1.14,1.14,0,0,0,0,2.11c14.94,7.34,51.34,50,58.53,68.38a1.37,1.37,0,0,0,2.49,0c7.18-18.37,43.58-61,58.52-68.38a1.14,1.14,0,0,0,0-2.11c-14.95-7.11-51.32-49.14-58.5-67.38A1.37,1.37,0,0,0,167.4,178.39Z"/></svg>