<svg id="Layer_1" data-name="Layer 1" xmlns="http://www.w3.org/2000/svg" viewBox="0 0 251.43 334.21"><defs><style>.cls-1{fill:#f4f3ef;}.cls-2{fill:#272528;}</style></defs><rect class="cls-1" width="251.43" height="334.21" rx="21.02"/><path class="cls-2" d="M50.88,56.78c3.39-1.61,6.59-3,9.67-4.64,5.36-2.85,7.61-7.51,7.27-13.45A21.48,21.48,0,0,0,67,33.32a9.68,9.68,0,0,0-7.65-6.83,14.4,14.4,0,0,0-8,.4c-3.07,1.15-4.44,3.75-5,6.77a43.08,43.08,0,0,0-.55,5.56c-.18,3.24-1.79,5.87-4.44,6.69-3.06.94-6.1,1-8.42-1.63s-2.42-5.8-1.61-9c1.23-4.84,4.44-8.11,8.7-10.46A32.37,32.37,0,0,1,54.53,21.1a48.26,48.26,0,0,1,13.78,1c5.73,1.42,10.71,4,13.45,9.6s2,13.62-4.78,17.74c-1.73,1.06-3.58,2-5.51,3,1.39.27,2.75.44,4.06.8,9.55,2.61,14.88,11,13.88,20.77C88.32,84.6,81.9,91.1,72.49,95c-9.82,4-19.89,3.87-29.9.68a23.35,23.35,0,0,1-12.77-9.12,15.53,15.53,0,0,1-2.44-11.38c.77-4.86,5.19-7.4,10.29-6.21,3.31.78,4.8,2.68,5.23,7a24.43,24.43,0,0,0,4.59,11.86c2.82,4,6.79,5.06,11.4,4.85,7.77-.34,11.47-6.52,13-12.36A24.69,24.69,0,0,0,72,68.53a12.13,12.13,0,0,0-16.11-9.11c-.93.3-1.8.78-2.74,1A1.28,1.28,0,0,1,52,60.08C51.56,59,51.23,57.82,50.88,56.78Z"/><path class="cls-2" d="M57.06,116h0a.94.94,0,0,0-1.34,0h0c-4.18,3.76-26.38,24.5-26.38,39.8,0,13,9.2,14,12,14s12.45-1.49,12.45-13.24a.8.8,0,0,1,.8-.8.78.78,0,0,1,.8.78h2a.8.8,0,0,1,1.6,0c0,11.75,9.69,13.24,12.47,13.24s12-1,12-14C83.44,140.5,61.24,119.76,57.06,116Z"/><path class="cls-2" d="M63.89,176.88s-2.29-.44-4-5.47-2.43-14.73-2.43-14.81h-2c0,.09-.63,9.69-2.43,14.82s-4,5.46-4,5.47l-.13,0V179H64V176.9Z"/><path class="cls-2" d="M170.12,178.51h0a2.07,2.07,0,0,0-1.48-.61,2.05,2.05,0,0,0-1.47.61h0c-9.16,8.26-57.83,53.72-57.83,87.28,0,28.53,20.17,30.78,26.28,30.78s27.29-3.25,27.29-29a1.76,1.76,0,0,1,1.76-1.76,1.74,1.74,0,0,1,1.76,1.73h4.4a1.76,1.76,0,0,1,3.51,0c0,25.78,21.24,29,27.35,29S228,294.32,228,265.79C228,232.23,179.28,186.77,170.12,178.51Z"/><path class="cls-2" d="M185.09,312s-5-1-8.88-12c-3.94-11.24-5.33-32.29-5.34-32.46l-4.45,0c0,.2-1.4,21.25-5.34,32.49-3.87,11-8.84,12-8.89,12l-.28,0v4.69h33.46v-4.69Z"/></svg>