<svg id="Layer_1" data-name="Layer 1" xmlns="http://www.w3.org/2000/svg" viewBox="0 0 251.43 334.21"><defs><style>.cls-1{fill:#f4f3ef;}.cls-2{fill:#272528;}</style></defs><rect class="cls-1" width="251.43" height="334.21" rx="21.02"/><path class="cls-2" d="M77.22,22.92v1.91c0,12.77,0,25.54,0,38.31,0,1.44.43,1.84,1.83,1.81,3.45-.09,6.9,0,10.55,0V71c0,1.45-.07,2.9,0,4.34.07,1.11-.28,1.48-1.41,1.46-3.13-.06-6.27,0-9.4,0-1.24,0-1.64.35-1.58,1.59.09,2.15,0,4.3,0,6.45.08,3.9,1.65,5.84,5.42,6.75.59.14,1.2.21,1.78.36s1.89.3,1.95.62a13.85,13.85,0,0,1,0,3.75c0,.17-.86.37-1.32.37-6.27,0-12.54,0-18.81,0-4.4,0-8.8,0-13.2,0-1.1,0-1.52-.31-1.43-1.42s0-2,0-3c1.45-.25,2.78-.42,4.09-.71,3.51-.76,5-2.33,5.33-5.89.23-2.6.12-5.23.19-7.85,0-1-.63-1.09-1.4-1.08-3.46,0-6.92,0-10.39,0-6.17,0-12.35,0-18.53,0-1.21,0-1.87-.28-2.15-1.56-.4-1.87-1-3.71-1.55-5.53a2.46,2.46,0,0,1,.46-2.45Q39.79,50.79,51.85,34.24c3-4.08,6-8.14,8.92-12.24A2,2,0,0,1,63,21.08c4.26.59,8.53,1.07,12.8,1.59C76.21,22.72,76.62,22.81,77.22,22.92Zm-16,7.14-.39-.12c-.28.35-.59.68-.85,1Q51.8,42.14,43.68,53.29c-1.87,2.57-3.77,5.11-5.56,7.73-1.41,2.09-.63,3.59,1.88,3.86.33,0,.65,0,1,0,6.17,0,12.34,0,18.51,0,1.31,0,1.8-.36,1.79-1.74,0-10.55,0-21.11,0-31.67C61.25,31,61.2,30.55,61.17,30.06Z"/><path class="cls-2" d="M81.94,145.18a13.6,13.6,0,0,0-16.21-2.29h0a.92.92,0,0,1-.21.13l-.24.14a1.29,1.29,0,0,1-1.36-.27,1.27,1.27,0,0,1-.37-.91,1.22,1.22,0,0,1,.37-.9l0,0A14.23,14.23,0,0,0,66,139.28a13.62,13.62,0,1,0-19.26,0A13.69,13.69,0,0,0,49,141.05l0,0a1.28,1.28,0,0,1,0,1.81,1.26,1.26,0,0,1-.9.37h0a1.26,1.26,0,0,1-.9-.37l0,0a13.63,13.63,0,0,0-16.25,2.26,13.62,13.62,0,1,0,23.1,11.54.75.75,0,0,1,1.43.32c0,.08-.63,8.93-2.43,14.05s-4,5.47-4,5.48l-.13,0v2.13H64v-2.13l-.13,0s-2.29-.44-4-5.48-2.43-14-2.44-14a.76.76,0,0,1,1.44-.33,13.61,13.61,0,1,0,23.1-11.54Z"/><path class="cls-2" d="M224.68,242.5a29.86,29.86,0,0,0-35.55-5v0a2.27,2.27,0,0,1-.46.3l-.51.31a2.87,2.87,0,0,1-3-.61,2.82,2.82,0,0,1-.82-2,2.74,2.74,0,0,1,.83-2l-.1-.1a29.9,29.9,0,1,0-32.74.06l0,0a2.79,2.79,0,0,1,0,4,2.83,2.83,0,0,1-2,.83h0a2.83,2.83,0,0,1-2-.83l-.09.09a29.89,29.89,0,1,0,15,30.27,1.65,1.65,0,0,1,3.14.69c0,.19-1.39,19.58-5.34,30.83-3.86,11-8.83,12-8.88,12l-.28,0v4.69h33.46v-4.68l-.28-.05c-.05,0-5-1-8.88-12-3.94-11.25-5.33-30.64-5.34-30.81a1.65,1.65,0,0,1,3.15-.7,29.85,29.85,0,1,0,50.66-25.32Z"/></svg>