<svg id="Layer_1" data-name="Layer 1" xmlns="http://www.w3.org/2000/svg" viewBox="0 0 251.43 334.21"><defs><style>.cls-1{fill:#f4f3ef;}.cls-2{fill:#e12140;}</style></defs><rect class="cls-1" width="251.43" height="334.21" rx="21.02"/><path class="cls-2" d="M77.22,22.92v1.91c0,12.77,0,25.54,0,38.31,0,1.44.43,1.84,1.83,1.81,3.45-.09,6.9,0,10.55,0V71c0,1.45-.07,2.9,0,4.34.07,1.11-.28,1.48-1.41,1.46-3.13-.06-6.27,0-9.4,0-1.24,0-1.64.35-1.58,1.59.09,2.15,0,4.3,0,6.45.08,3.9,1.65,5.84,5.42,6.75.59.14,1.2.21,1.78.36s1.89.3,1.95.62a13.85,13.85,0,0,1,0,3.75c0,.17-.86.37-1.32.37-6.27,0-12.54,0-18.81,0-4.4,0-8.8,0-13.2,0-1.1,0-1.52-.31-1.43-1.42s0-2,0-3c1.45-.25,2.78-.42,4.09-.71,3.51-.76,5-2.33,5.33-5.89.23-2.6.12-5.23.19-7.85,0-1-.63-1.09-1.4-1.08-3.46,0-6.92,0-10.39,0-6.17,0-12.35,0-18.53,0-1.21,0-1.87-.28-2.15-1.56-.4-1.87-1-3.71-1.55-5.53a2.46,2.46,0,0,1,.46-2.45Q39.79,50.79,51.85,34.24c3-4.08,6-8.14,8.92-12.24A2,2,0,0,1,63,21.08c4.26.59,8.53,1.07,12.8,1.59C76.21,22.72,76.62,22.81,77.22,22.92Zm-16,7.14-.39-.12c-.28.35-.59.68-.85,1Q51.8,42.14,43.68,53.29c-1.87,2.57-3.77,5.11-5.56,7.73-1.41,2.09-.63,3.59,1.88,3.86.33,0,.65,0,1,0,6.17,0,12.34,0,18.51,0,1.31,0,1.8-.36,1.79-1.74,0-10.55,0-21.11,0-31.67C61.25,31,61.2,30.55,61.17,30.06Z"/><path class="cls-2" d="M55.82,115.94c-3.27,8.32-19.86,27.49-26.68,30.73a.52.52,0,0,0,0,1C36,151,52.54,170.44,55.82,178.81a.63.63,0,0,0,1.14,0c3.28-8.37,19.87-27.83,26.68-31.18a.52.52,0,0,0,0-1c-6.82-3.24-23.41-22.41-26.68-30.73A.63.63,0,0,0,55.82,115.94Z"/><path class="cls-2" d="M167.4,178.39c-7.19,18.24-43.56,60.27-58.51,67.38a1.14,1.14,0,0,0,0,2.11c14.94,7.34,51.34,50,58.53,68.38a1.37,1.37,0,0,0,2.49,0c7.18-18.37,43.58-61,58.52-68.38a1.14,1.14,0,0,0,0-2.11c-14.95-7.11-51.32-49.14-58.5-67.38A1.37,1.37,0,0,0,167.4,178.39Z"/></svg>