<svg id="Layer_1" data-name="Layer 1" xmlns="http://www.w3.org/2000/svg" viewBox="0 0 251.43 334.21"><defs><style>.cls-1{fill:#f4f3ef;}.cls-2{fill:#272528;}</style></defs><rect class="cls-1" width="251.43" height="334.21" rx="21.02"/><path class="cls-2" d="M39.64,52.09C41.48,51,43.18,49.86,45,49a34.09,34.09,0,0,1,23.23-2.33,27.77,27.77,0,0,1,14.09,7.66C87,59.12,88.73,65,88.68,71.57a24.12,24.12,0,0,1-8.89,19.16,28.5,28.5,0,0,1-12.1,5.94,44,44,0,0,1-24.61-.94c-6-2-11-5.49-13.63-11.51A13.92,13.92,0,0,1,29,72.93a6.72,6.72,0,0,1,6.19-4.33c2.38-.13,4.93-.36,6.55,1.89a8.9,8.9,0,0,1,1.6,3.77c.61,4,1.28,8,3.21,11.67,2.33,4.47,6.6,7.42,12.07,6.72C65,91.84,68.46,88,70,82.39c2.3-8.36,1.83-16.56-3-24.11A15.18,15.18,0,0,0,51.48,51.8c-5.43,1.06-10.09,3.33-13.23,8.12a1.21,1.21,0,0,1-.74.53c-1.1.06-2.21,0-3.44,0,.14-2.26.24-4.35.39-6.43C35.21,43.92,36,33.82,36.71,23.7c.09-1.31.88-1.19,1.73-1.19,9.68,0,19.37-.07,29.05,0A61.11,61.11,0,0,0,79,21.32l2.47-.42c0,.82.06,1.5,0,2.17-.43,4.28-.94,8.55-1.33,12.82-.11,1.17-.83.91-1.48.91H42.89a6,6,0,0,0-1.53.05,1.21,1.21,0,0,0-.78.76c-.39,4.7-.74,9.4-1.09,14.11A1.71,1.71,0,0,0,39.64,52.09Z"/><path class="cls-2" d="M81.94,145.18a13.6,13.6,0,0,0-16.21-2.29h0a.92.92,0,0,1-.21.13l-.24.14a1.29,1.29,0,0,1-1.36-.27,1.27,1.27,0,0,1-.37-.91,1.22,1.22,0,0,1,.37-.9l0,0A14.23,14.23,0,0,0,66,139.28a13.62,13.62,0,1,0-19.26,0A13.69,13.69,0,0,0,49,141.05l0,0a1.28,1.28,0,0,1,0,1.81,1.26,1.26,0,0,1-.9.37h0a1.26,1.26,0,0,1-.9-.37l0,0a13.63,13.63,0,0,0-16.25,2.26,13.62,13.62,0,1,0,23.1,11.54.75.75,0,0,1,1.43.32c0,.08-.63,8.93-2.43,14.05s-4,5.47-4,5.48l-.13,0v2.13H64v-2.13l-.13,0s-2.29-.44-4-5.48-2.43-14-2.44-14a.76.76,0,0,1,1.44-.33,13.61,13.61,0,1,0,23.1-11.54Z"/><path class="cls-2" d="M224.68,242.5a29.86,29.86,0,0,0-35.55-5v0a2.27,2.27,0,0,1-.46.3l-.51.31a2.87,2.87,0,0,1-3-.61,2.82,2.82,0,0,1-.82-2,2.74,2.74,0,0,1,.83-2l-.1-.1a29.9,29.9,0,1,0-32.74.06l0,0a2.79,2.79,0,0,1,0,4,2.83,2.83,0,0,1-2,.83h0a2.83,2.83,0,0,1-2-.83l-.09.09a29.89,29.89,0,1,0,15,30.27,1.65,1.65,0,0,1,3.14.69c0,.19-1.39,19.58-5.34,30.83-3.86,11-8.83,12-8.88,12l-.28,0v4.69h33.46v-4.68l-.28-.05c-.05,0-5-1-8.88-12-3.94-11.25-5.33-30.64-5.34-30.81a1.65,1.65,0,0,1,3.15-.7,29.85,29.85,0,1,0,50.66-25.32Z"/></svg>