<svg id="Layer_1" data-name="Layer 1" xmlns="http://www.w3.org/2000/svg" viewBox="0 0 251.43 334.21"><defs><style>.cls-1{fill:#f4f3ef;}.cls-2{fill:#e12140;}</style></defs><rect class="cls-1" width="251.43" height="334.21" rx="21.02"/><path class="cls-2" d="M39.64,52.09C41.48,51,43.18,49.86,45,49a34.09,34.09,0,0,1,23.23-2.33,27.77,27.77,0,0,1,14.09,7.66C87,59.12,88.73,65,88.68,71.57a24.12,24.12,0,0,1-8.89,19.16,28.5,28.5,0,0,1-12.1,5.94,44,44,0,0,1-24.61-.94c-6-2-11-5.49-13.63-11.51A13.92,13.92,0,0,1,29,72.93a6.72,6.72,0,0,1,6.19-4.33c2.38-.13,4.93-.36,6.55,1.89a8.9,8.9,0,0,1,1.6,3.77c.61,4,1.28,8,3.21,11.67,2.33,4.47,6.6,7.42,12.07,6.72C65,91.84,68.46,88,70,82.39c2.3-8.36,1.83-16.56-3-24.11A15.18,15.18,0,0,0,51.48,51.8c-5.43,1.06-10.09,3.33-13.23,8.12a1.21,1.21,0,0,1-.74.53c-1.1.06-2.21,0-3.44,0,.14-2.26.24-4.35.39-6.43C35.21,43.92,36,33.82,36.71,23.7c.09-1.31.88-1.19,1.73-1.19,9.68,0,19.37-.07,29.05,0A61.11,61.11,0,0,0,79,21.32l2.47-.42c0,.82.06,1.5,0,2.17-.43,4.28-.94,8.55-1.33,12.82-.11,1.17-.83.91-1.48.91H42.89a6,6,0,0,0-1.53.05,1.21,1.21,0,0,0-.78.76c-.39,4.7-.74,9.4-1.09,14.11A1.71,1.71,0,0,0,39.64,52.09Z"/><path class="cls-2" d="M55.82,115.94c-3.27,8.32-19.86,27.49-26.68,30.73a.52.52,0,0,0,0,1C36,151,52.54,170.44,55.82,178.81a.63.63,0,0,0,1.14,0c3.28-8.37,19.87-27.83,26.68-31.18a.52.52,0,0,0,0-1c-6.82-3.24-23.41-22.41-26.68-30.73A.63.63,0,0,0,55.82,115.94Z"/><path class="cls-2" d="M167.4,178.39c-7.19,18.24-43.56,60.27-58.51,67.38a1.14,1.14,0,0,0,0,2.11c14.94,7.34,51.34,50,58.53,68.38a1.37,1.37,0,0,0,2.49,0c7.18-18.37,43.58-61,58.52-68.38a1.14,1.14,0,0,0,0-2.11c-14.95-7.11-51.32-49.14-58.5-67.38A1.37,1.37,0,0,0,167.4,178.39Z"/></svg>