<svg id="Layer_1" data-name="Layer 1" xmlns="http://www.w3.org/2000/svg" viewBox="0 0 251.43 334.21"><defs><style>.cls-1{fill:#f4f3ef;}.cls-2{fill:#e12140;}</style></defs><rect class="cls-1" width="251.43" height="334.21" rx="21.02"/><path class="cls-2" d="M39.64,52.09C41.48,51,43.18,49.86,45,49a34.09,34.09,0,0,1,23.23-2.33,27.77,27.77,0,0,1,14.09,7.66C87,59.12,88.73,65,88.68,71.57a24.12,24.12,0,0,1-8.89,19.16,28.5,28.5,0,0,1-12.1,5.94,44,44,0,0,1-24.61-.94c-6-2-11-5.49-13.63-11.51A13.92,13.92,0,0,1,29,72.93a6.72,6.72,0,0,1,6.19-4.33c2.38-.13,4.93-.36,6.55,1.89a8.9,8.9,0,0,1,1.6,3.77c.61,4,1.28,8,3.21,11.67,2.33,4.47,6.6,7.42,12.07,6.72C65,91.84,68.46,88,70,82.39c2.3-8.36,1.83-16.56-3-24.11A15.18,15.18,0,0,0,51.48,51.8c-5.43,1.06-10.09,3.33-13.23,8.12a1.21,1.21,0,0,1-.74.53c-1.1.06-2.21,0-3.44,0,.14-2.26.24-4.35.39-6.43C35.21,43.92,36,33.82,36.71,23.7c.09-1.31.88-1.19,1.73-1.19,9.68,0,19.37-.07,29.05,0A61.11,61.11,0,0,0,79,21.32l2.47-.42c0,.82.06,1.5,0,2.17-.43,4.28-.94,8.55-1.33,12.82-.11,1.17-.83.91-1.48.91H42.89a6,6,0,0,0-1.53.05,1.21,1.21,0,0,0-.78.76c-.39,4.7-.74,9.4-1.09,14.11A1.71,1.71,0,0,0,39.64,52.09Z"/><path class="cls-2" d="M70.15,118.28c-7.6,0-13.76,5.73-13.76,12.8,0-7.07-6.16-12.8-13.76-12.8S28.87,124,28.87,131.08v0c0,10,5.63,15.21,14.22,24.68A79.67,79.67,0,0,1,56,176.16a.46.46,0,0,0,.88,0,79.67,79.67,0,0,1,12.86-20.37c8.58-9.47,14.22-14.66,14.22-24.68v0C83.91,124,77.75,118.28,70.15,118.28Z"/><path class="cls-2" d="M198.82,183.52c-16.67,0-30.18,12.56-30.18,28.06,0-15.5-13.51-28.06-30.18-28.06s-30.17,12.56-30.17,28.06v.07c0,22,12.36,33.35,31.18,54.13,15.48,17.08,25.23,37.82,28.2,44.66a1,1,0,0,0,1.94,0c3-6.84,12.72-27.58,28.2-44.66C216.63,245,229,233.63,229,211.65v-.07C229,196.08,215.49,183.52,198.82,183.52Z"/></svg>