<svg id="Layer_1" data-name="Layer 1" xmlns="http://www.w3.org/2000/svg" viewBox="0 0 251.43 334.21"><defs><style>.cls-1{fill:#f4f3ef;}.cls-2{fill:#272528;}</style></defs><rect class="cls-1" width="251.43" height="334.21" rx="21.02"/><path class="cls-2" d="M39.64,52.09C41.48,51,43.18,49.86,45,49a34.09,34.09,0,0,1,23.23-2.33,27.77,27.77,0,0,1,14.09,7.66C87,59.12,88.73,65,88.68,71.57a24.12,24.12,0,0,1-8.89,19.16,28.5,28.5,0,0,1-12.1,5.94,44,44,0,0,1-24.61-.94c-6-2-11-5.49-13.63-11.51A13.92,13.92,0,0,1,29,72.93a6.72,6.72,0,0,1,6.19-4.33c2.38-.13,4.93-.36,6.55,1.89a8.9,8.9,0,0,1,1.6,3.77c.61,4,1.28,8,3.21,11.67,2.33,4.47,6.6,7.42,12.07,6.72C65,91.84,68.46,88,70,82.39c2.3-8.36,1.83-16.56-3-24.11A15.18,15.18,0,0,0,51.48,51.8c-5.43,1.06-10.09,3.33-13.23,8.12a1.21,1.21,0,0,1-.74.53c-1.1.06-2.21,0-3.44,0,.14-2.26.24-4.35.39-6.43C35.21,43.92,36,33.82,36.71,23.7c.09-1.31.88-1.19,1.73-1.19,9.68,0,19.37-.07,29.05,0A61.11,61.11,0,0,0,79,21.32l2.47-.42c0,.82.06,1.5,0,2.17-.43,4.28-.94,8.55-1.33,12.82-.11,1.17-.83.91-1.48.91H42.89a6,6,0,0,0-1.53.05,1.21,1.21,0,0,0-.78.76c-.39,4.7-.74,9.4-1.09,14.11A1.71,1.71,0,0,0,39.64,52.09Z"/><path class="cls-2" d="M57.06,116h0a.94.94,0,0,0-1.34,0h0c-4.18,3.76-26.38,24.5-26.38,39.8,0,13,9.2,14,12,14s12.45-1.49,12.45-13.24a.8.8,0,0,1,.8-.8.78.78,0,0,1,.8.78h2a.8.8,0,0,1,1.6,0c0,11.75,9.69,13.24,12.47,13.24s12-1,12-14C83.44,140.5,61.24,119.76,57.06,116Z"/><path class="cls-2" d="M63.89,176.88s-2.29-.44-4-5.47-2.43-14.73-2.43-14.81h-2c0,.09-.63,9.69-2.43,14.82s-4,5.46-4,5.47l-.13,0V179H64V176.9Z"/><path class="cls-2" d="M170.12,178.51h0a2.07,2.07,0,0,0-1.48-.61,2.05,2.05,0,0,0-1.47.61h0c-9.16,8.26-57.83,53.72-57.83,87.28,0,28.53,20.17,30.78,26.28,30.78s27.29-3.25,27.29-29a1.76,1.76,0,0,1,1.76-1.76,1.74,1.74,0,0,1,1.76,1.73h4.4a1.76,1.76,0,0,1,3.51,0c0,25.78,21.24,29,27.35,29S228,294.32,228,265.79C228,232.23,179.28,186.77,170.12,178.51Z"/><path class="cls-2" d="M185.09,312s-5-1-8.88-12c-3.94-11.24-5.33-32.29-5.34-32.46l-4.45,0c0,.2-1.4,21.25-5.34,32.49-3.87,11-8.84,12-8.89,12l-.28,0v4.69h33.46v-4.69Z"/></svg>