<svg id="Layer_1" data-name="Layer 1" xmlns="http://www.w3.org/2000/svg" viewBox="0 0 251.43 334.21"><defs><style>.cls-1{fill:#f4f3ef;}.cls-2{fill:#272528;}</style></defs><rect class="cls-1" width="251.43" height="334.21" rx="21.02"/><path class="cls-2" d="M45.37,55.26c2-1.3,3.9-2.68,5.93-3.78,8.34-4.5,16.74-4,25,.15A20.26,20.26,0,0,1,87.42,65.85c2.84,13-2.5,24.89-15.72,29.92a36.52,36.52,0,0,1-17.81,1.69,26.3,26.3,0,0,1-13.78-5.75,30.29,30.29,0,0,1-10-16.51,56.44,56.44,0,0,1-.52-24.47c1.42-7.6,4.31-14.57,9.76-20.3a29.09,29.09,0,0,1,15.53-8.65,34.24,34.24,0,0,1,18,.86,36.25,36.25,0,0,1,4.64,2.28c.65.33.72.8.27,1.37l-.07.12c-1.79,3-1.81,3-5.4,1.48a19.25,19.25,0,0,0-13.69-.6,14.64,14.64,0,0,0-9,7.53,42.76,42.76,0,0,0-4.42,19.91A2.09,2.09,0,0,0,45.37,55.26ZM72.09,74.7A26.22,26.22,0,0,0,69,61.35a12.1,12.1,0,0,0-14.45-5.61c-5.6,1.74-8.25,6.2-9.21,11.55a28.29,28.29,0,0,0,3.31,18.95A11.87,11.87,0,0,0,59,92.71C64,93,67.74,90.9,69.89,86.29A26.67,26.67,0,0,0,72.09,74.7Z"/><path class="cls-2" d="M81.94,145.18a13.6,13.6,0,0,0-16.21-2.29h0a.92.92,0,0,1-.21.13l-.24.14a1.29,1.29,0,0,1-1.36-.27,1.27,1.27,0,0,1-.37-.91,1.22,1.22,0,0,1,.37-.9l0,0A14.23,14.23,0,0,0,66,139.28a13.62,13.62,0,1,0-19.26,0A13.69,13.69,0,0,0,49,141.05l0,0a1.28,1.28,0,0,1,0,1.81,1.26,1.26,0,0,1-.9.37h0a1.26,1.26,0,0,1-.9-.37l0,0a13.63,13.63,0,0,0-16.25,2.26,13.62,13.62,0,1,0,23.1,11.54.75.75,0,0,1,1.43.32c0,.08-.63,8.93-2.43,14.05s-4,5.47-4,5.48l-.13,0v2.13H64v-2.13l-.13,0s-2.29-.44-4-5.48-2.43-14-2.44-14a.76.76,0,0,1,1.44-.33,13.61,13.61,0,1,0,23.1-11.54Z"/><path class="cls-2" d="M224.68,242.5a29.86,29.86,0,0,0-35.55-5v0a2.27,2.27,0,0,1-.46.3l-.51.31a2.87,2.87,0,0,1-3-.61,2.82,2.82,0,0,1-.82-2,2.74,2.74,0,0,1,.83-2l-.1-.1a29.9,29.9,0,1,0-32.74.06l0,0a2.79,2.79,0,0,1,0,4,2.83,2.83,0,0,1-2,.83h0a2.83,2.83,0,0,1-2-.83l-.09.09a29.89,29.89,0,1,0,15,30.27,1.65,1.65,0,0,1,3.14.69c0,.19-1.39,19.58-5.34,30.83-3.86,11-8.83,12-8.88,12l-.28,0v4.69h33.46v-4.68l-.28-.05c-.05,0-5-1-8.88-12-3.94-11.25-5.33-30.64-5.34-30.81a1.65,1.65,0,0,1,3.15-.7,29.85,29.85,0,1,0,50.66-25.32Z"/></svg>