<svg id="Layer_1" data-name="Layer 1" xmlns="http://www.w3.org/2000/svg" viewBox="0 0 251.43 334.21"><defs><style>.cls-1{fill:#f4f3ef;}.cls-2{fill:#e12140;}</style></defs><rect class="cls-1" width="251.43" height="334.21" rx="21.02"/><path class="cls-2" d="M45.37,55.26c2-1.3,3.9-2.68,5.93-3.78,8.34-4.5,16.74-4,25,.15A20.26,20.26,0,0,1,87.42,65.85c2.84,13-2.5,24.89-15.72,29.92a36.52,36.52,0,0,1-17.81,1.69,26.3,26.3,0,0,1-13.78-5.75,30.29,30.29,0,0,1-10-16.51,56.44,56.44,0,0,1-.52-24.47c1.42-7.6,4.31-14.57,9.76-20.3a29.09,29.09,0,0,1,15.53-8.65,34.24,34.24,0,0,1,18,.86,36.25,36.25,0,0,1,4.64,2.28c.65.33.72.8.27,1.37l-.07.12c-1.79,3-1.81,3-5.4,1.48a19.25,19.25,0,0,0-13.69-.6,14.64,14.64,0,0,0-9,7.53,42.76,42.76,0,0,0-4.42,19.91A2.09,2.09,0,0,0,45.37,55.26ZM72.09,74.7A26.22,26.22,0,0,0,69,61.35a12.1,12.1,0,0,0-14.45-5.61c-5.6,1.74-8.25,6.2-9.21,11.55a28.29,28.29,0,0,0,3.31,18.95A11.87,11.87,0,0,0,59,92.71C64,93,67.74,90.9,69.89,86.29A26.67,26.67,0,0,0,72.09,74.7Z"/><path class="cls-2" d="M55.82,115.94c-3.27,8.32-19.86,27.49-26.68,30.73a.52.52,0,0,0,0,1C36,151,52.54,170.44,55.82,178.81a.63.63,0,0,0,1.14,0c3.28-8.37,19.87-27.83,26.68-31.18a.52.52,0,0,0,0-1c-6.82-3.24-23.41-22.41-26.68-30.73A.63.63,0,0,0,55.82,115.94Z"/><path class="cls-2" d="M167.4,178.39c-7.19,18.24-43.56,60.27-58.51,67.38a1.14,1.14,0,0,0,0,2.11c14.94,7.34,51.34,50,58.53,68.38a1.37,1.37,0,0,0,2.49,0c7.18-18.37,43.58-61,58.52-68.38a1.14,1.14,0,0,0,0-2.11c-14.95-7.11-51.32-49.14-58.5-67.38A1.37,1.37,0,0,0,167.4,178.39Z"/></svg>