<svg id="Layer_1" data-name="Layer 1" xmlns="http://www.w3.org/2000/svg" viewBox="0 0 251.43 334.21"><defs><style>.cls-1{fill:#f4f3ef;}.cls-2{fill:#e12140;}</style></defs><rect class="cls-1" width="251.43" height="334.21" rx="21.02"/><path class="cls-2" d="M45.37,55.26c2-1.3,3.9-2.68,5.93-3.78,8.34-4.5,16.74-4,25,.15A20.26,20.26,0,0,1,87.42,65.85c2.84,13-2.5,24.89-15.72,29.92a36.52,36.52,0,0,1-17.81,1.69,26.3,26.3,0,0,1-13.78-5.75,30.29,30.29,0,0,1-10-16.51,56.44,56.44,0,0,1-.52-24.47c1.42-7.6,4.31-14.57,9.76-20.3a29.09,29.09,0,0,1,15.53-8.65,34.24,34.24,0,0,1,18,.86,36.25,36.25,0,0,1,4.64,2.28c.65.33.72.8.27,1.37l-.07.12c-1.79,3-1.81,3-5.4,1.48a19.25,19.25,0,0,0-13.69-.6,14.64,14.64,0,0,0-9,7.53,42.76,42.76,0,0,0-4.42,19.91A2.09,2.09,0,0,0,45.37,55.26ZM72.09,74.7A26.22,26.22,0,0,0,69,61.35a12.1,12.1,0,0,0-14.45-5.61c-5.6,1.74-8.25,6.2-9.21,11.55a28.29,28.29,0,0,0,3.31,18.95A11.87,11.87,0,0,0,59,92.71C64,93,67.74,90.9,69.89,86.29A26.67,26.67,0,0,0,72.09,74.7Z"/><path class="cls-2" d="M70.15,118.28c-7.6,0-13.76,5.73-13.76,12.8,0-7.07-6.16-12.8-13.76-12.8S28.87,124,28.87,131.08v0c0,10,5.63,15.21,14.22,24.68A79.67,79.67,0,0,1,56,176.16a.46.46,0,0,0,.88,0,79.67,79.67,0,0,1,12.86-20.37c8.58-9.47,14.22-14.66,14.22-24.68v0C83.91,124,77.75,118.28,70.15,118.28Z"/><path class="cls-2" d="M198.82,183.52c-16.67,0-30.18,12.56-30.18,28.06,0-15.5-13.51-28.06-30.18-28.06s-30.17,12.56-30.17,28.06v.07c0,22,12.36,33.35,31.18,54.13,15.48,17.08,25.23,37.82,28.2,44.66a1,1,0,0,0,1.94,0c3-6.84,12.72-27.58,28.2-44.66C216.63,245,229,233.63,229,211.65v-.07C229,196.08,215.49,183.52,198.82,183.52Z"/></svg>