<svg id="Layer_1" data-name="Layer 1" xmlns="http://www.w3.org/2000/svg" viewBox="0 0 251.43 334.21"><defs><style>.cls-1{fill:#f4f3ef;}.cls-2{fill:#272528;}</style></defs><rect class="cls-1" width="251.43" height="334.21" rx="21.02"/><path class="cls-2" d="M45.37,55.26c2-1.3,3.9-2.68,5.93-3.78,8.34-4.5,16.74-4,25,.15A20.26,20.26,0,0,1,87.42,65.85c2.84,13-2.5,24.89-15.72,29.92a36.52,36.52,0,0,1-17.81,1.69,26.3,26.3,0,0,1-13.78-5.75,30.29,30.29,0,0,1-10-16.51,56.44,56.44,0,0,1-.52-24.47c1.42-7.6,4.31-14.57,9.76-20.3a29.09,29.09,0,0,1,15.53-8.65,34.24,34.24,0,0,1,18,.86,36.25,36.25,0,0,1,4.64,2.28c.65.33.72.8.27,1.37l-.07.12c-1.79,3-1.81,3-5.4,1.48a19.25,19.25,0,0,0-13.69-.6,14.64,14.64,0,0,0-9,7.53,42.76,42.76,0,0,0-4.42,19.91A2.09,2.09,0,0,0,45.37,55.26ZM72.09,74.7A26.22,26.22,0,0,0,69,61.35a12.1,12.1,0,0,0-14.45-5.61c-5.6,1.74-8.25,6.2-9.21,11.55a28.29,28.29,0,0,0,3.31,18.95A11.87,11.87,0,0,0,59,92.71C64,93,67.74,90.9,69.89,86.29A26.67,26.67,0,0,0,72.09,74.7Z"/><path class="cls-2" d="M57.06,116h0a.94.94,0,0,0-1.34,0h0c-4.18,3.76-26.38,24.5-26.38,39.8,0,13,9.2,14,12,14s12.45-1.49,12.45-13.24a.8.8,0,0,1,.8-.8.78.78,0,0,1,.8.78h2a.8.8,0,0,1,1.6,0c0,11.75,9.69,13.24,12.47,13.24s12-1,12-14C83.44,140.5,61.24,119.76,57.06,116Z"/><path class="cls-2" d="M63.89,176.88s-2.29-.44-4-5.47-2.43-14.73-2.43-14.81h-2c0,.09-.63,9.69-2.43,14.82s-4,5.46-4,5.47l-.13,0V179H64V176.9Z"/><path class="cls-2" d="M170.12,178.51h0a2.07,2.07,0,0,0-1.48-.61,2.05,2.05,0,0,0-1.47.61h0c-9.16,8.26-57.83,53.72-57.83,87.28,0,28.53,20.17,30.78,26.28,30.78s27.29-3.25,27.29-29a1.76,1.76,0,0,1,1.76-1.76,1.74,1.74,0,0,1,1.76,1.73h4.4a1.76,1.76,0,0,1,3.51,0c0,25.78,21.24,29,27.35,29S228,294.32,228,265.79C228,232.23,179.28,186.77,170.12,178.51Z"/><path class="cls-2" d="M185.09,312s-5-1-8.88-12c-3.94-11.24-5.33-32.29-5.34-32.46l-4.45,0c0,.2-1.4,21.25-5.34,32.49-3.87,11-8.84,12-8.89,12l-.28,0v4.69h33.46v-4.69Z"/></svg>