<svg id="Layer_1" data-name="Layer 1" xmlns="http://www.w3.org/2000/svg" viewBox="0 0 251.43 334.21"><defs><style>.cls-1{fill:#f4f3ef;}.cls-2{fill:#272528;}</style></defs><rect class="cls-1" width="251.43" height="334.21" rx="21.02"/><path class="cls-2" d="M75.21,37.29c-.77-.07-1.13-.13-1.5-.13-7.81,0-15.63,0-23.44.11a23.72,23.72,0,0,0-10.76,2.2A16.89,16.89,0,0,0,34.84,43c-1.53,1.66-3.19,1.58-5.29,1.29.49-1.5.94-2.9,1.4-4.3,1.82-5.59,3.66-11.18,5.45-16.79.29-.9.71-1.29,1.71-1.17C50,23.51,62,22.64,74,22.85c3.83.06,7.67,0,11.51,0h1.63l-1.7,3.3Q67.62,61,49.77,95.75c-.2.39-.67.9-1,.91-3,.07-6.07,0-9.44,0C51.31,76.84,63.17,57.2,75.21,37.29Z"/><path class="cls-2" d="M81.94,145.18a13.6,13.6,0,0,0-16.21-2.29h0a.92.92,0,0,1-.21.13l-.24.14a1.29,1.29,0,0,1-1.36-.27,1.27,1.27,0,0,1-.37-.91,1.22,1.22,0,0,1,.37-.9l0,0A14.23,14.23,0,0,0,66,139.28a13.62,13.62,0,1,0-19.26,0A13.69,13.69,0,0,0,49,141.05l0,0a1.28,1.28,0,0,1,0,1.81,1.26,1.26,0,0,1-.9.37h0a1.26,1.26,0,0,1-.9-.37l0,0a13.63,13.63,0,0,0-16.25,2.26,13.62,13.62,0,1,0,23.1,11.54.75.75,0,0,1,1.43.32c0,.08-.63,8.93-2.43,14.05s-4,5.47-4,5.48l-.13,0v2.13H64v-2.13l-.13,0s-2.29-.44-4-5.48-2.43-14-2.44-14a.76.76,0,0,1,1.44-.33,13.61,13.61,0,1,0,23.1-11.54Z"/><path class="cls-2" d="M224.68,242.5a29.86,29.86,0,0,0-35.55-5v0a2.27,2.27,0,0,1-.46.3l-.51.31a2.87,2.87,0,0,1-3-.61,2.82,2.82,0,0,1-.82-2,2.74,2.74,0,0,1,.83-2l-.1-.1a29.9,29.9,0,1,0-32.74.06l0,0a2.79,2.79,0,0,1,0,4,2.83,2.83,0,0,1-2,.83h0a2.83,2.83,0,0,1-2-.83l-.09.09a29.89,29.89,0,1,0,15,30.27,1.65,1.65,0,0,1,3.14.69c0,.19-1.39,19.58-5.34,30.83-3.86,11-8.83,12-8.88,12l-.28,0v4.69h33.46v-4.68l-.28-.05c-.05,0-5-1-8.88-12-3.94-11.25-5.33-30.64-5.34-30.81a1.65,1.65,0,0,1,3.15-.7,29.85,29.85,0,1,0,50.66-25.32Z"/></svg>