<svg id="Layer_1" data-name="Layer 1" xmlns="http://www.w3.org/2000/svg" viewBox="0 0 251.43 334.21"><defs><style>.cls-1{fill:#f4f3ef;}.cls-2{fill:#e12140;}</style></defs><rect class="cls-1" width="251.43" height="334.21" rx="21.02"/><path class="cls-2" d="M75.21,37.29c-.77-.07-1.13-.13-1.5-.13-7.81,0-15.63,0-23.44.11a23.72,23.72,0,0,0-10.76,2.2A16.89,16.89,0,0,0,34.84,43c-1.53,1.66-3.19,1.58-5.29,1.29.49-1.5.94-2.9,1.4-4.3,1.82-5.59,3.66-11.18,5.45-16.79.29-.9.71-1.29,1.71-1.17C50,23.51,62,22.64,74,22.85c3.83.06,7.67,0,11.51,0h1.63l-1.7,3.3Q67.62,61,49.77,95.75c-.2.39-.67.9-1,.91-3,.07-6.07,0-9.44,0C51.31,76.84,63.17,57.2,75.21,37.29Z"/><path class="cls-2" d="M55.82,115.94c-3.27,8.32-19.86,27.49-26.68,30.73a.52.52,0,0,0,0,1C36,151,52.54,170.44,55.82,178.81a.63.63,0,0,0,1.14,0c3.28-8.37,19.87-27.83,26.68-31.18a.52.52,0,0,0,0-1c-6.82-3.24-23.41-22.41-26.68-30.73A.63.63,0,0,0,55.82,115.94Z"/><path class="cls-2" d="M167.4,178.39c-7.19,18.24-43.56,60.27-58.51,67.38a1.14,1.14,0,0,0,0,2.11c14.94,7.34,51.34,50,58.53,68.38a1.37,1.37,0,0,0,2.49,0c7.18-18.37,43.58-61,58.52-68.38a1.14,1.14,0,0,0,0-2.11c-14.95-7.11-51.32-49.14-58.5-67.38A1.37,1.37,0,0,0,167.4,178.39Z"/></svg>