<svg id="Layer_1" data-name="Layer 1" xmlns="http://www.w3.org/2000/svg" viewBox="0 0 251.43 334.21"><defs><style>.cls-1{fill:#f4f3ef;}.cls-2{fill:#e12140;}</style></defs><rect class="cls-1" width="251.43" height="334.21" rx="21.02"/><path class="cls-2" d="M75.21,37.29c-.77-.07-1.13-.13-1.5-.13-7.81,0-15.63,0-23.44.11a23.72,23.72,0,0,0-10.76,2.2A16.89,16.89,0,0,0,34.84,43c-1.53,1.66-3.19,1.58-5.29,1.29.49-1.5.94-2.9,1.4-4.3,1.82-5.59,3.66-11.18,5.45-16.79.29-.9.71-1.29,1.71-1.17C50,23.51,62,22.64,74,22.85c3.83.06,7.67,0,11.51,0h1.63l-1.7,3.3Q67.62,61,49.77,95.75c-.2.39-.67.9-1,.91-3,.07-6.07,0-9.44,0C51.31,76.84,63.17,57.2,75.21,37.29Z"/><path class="cls-2" d="M70.15,118.28c-7.6,0-13.76,5.73-13.76,12.8,0-7.07-6.16-12.8-13.76-12.8S28.87,124,28.87,131.08v0c0,10,5.63,15.21,14.22,24.68A79.67,79.67,0,0,1,56,176.16a.46.46,0,0,0,.88,0,79.67,79.67,0,0,1,12.86-20.37c8.58-9.47,14.22-14.66,14.22-24.68v0C83.91,124,77.75,118.28,70.15,118.28Z"/><path class="cls-2" d="M198.82,183.52c-16.67,0-30.18,12.56-30.18,28.06,0-15.5-13.51-28.06-30.18-28.06s-30.17,12.56-30.17,28.06v.07c0,22,12.36,33.35,31.18,54.13,15.48,17.08,25.23,37.82,28.2,44.66a1,1,0,0,0,1.94,0c3-6.84,12.72-27.58,28.2-44.66C216.63,245,229,233.63,229,211.65v-.07C229,196.08,215.49,183.52,198.82,183.52Z"/></svg>