<svg id="Layer_1" data-name="Layer 1" xmlns="http://www.w3.org/2000/svg" viewBox="0 0 251.43 334.21"><defs><style>.cls-1{fill:#f4f3ef;}.cls-2{fill:#272528;}</style></defs><rect class="cls-1" width="251.43" height="334.21" rx="21.02"/><path class="cls-2" d="M75.21,37.29c-.77-.07-1.13-.13-1.5-.13-7.81,0-15.63,0-23.44.11a23.72,23.72,0,0,0-10.76,2.2A16.89,16.89,0,0,0,34.84,43c-1.53,1.66-3.19,1.58-5.29,1.29.49-1.5.94-2.9,1.4-4.3,1.82-5.59,3.66-11.18,5.45-16.79.29-.9.71-1.29,1.71-1.17C50,23.51,62,22.64,74,22.85c3.83.06,7.67,0,11.51,0h1.63l-1.7,3.3Q67.62,61,49.77,95.75c-.2.39-.67.9-1,.91-3,.07-6.07,0-9.44,0C51.31,76.84,63.17,57.2,75.21,37.29Z"/><path class="cls-2" d="M57.06,116h0a.94.94,0,0,0-1.34,0h0c-4.18,3.76-26.38,24.5-26.38,39.8,0,13,9.2,14,12,14s12.45-1.49,12.45-13.24a.8.8,0,0,1,.8-.8.78.78,0,0,1,.8.78h2a.8.8,0,0,1,1.6,0c0,11.75,9.69,13.24,12.47,13.24s12-1,12-14C83.44,140.5,61.24,119.76,57.06,116Z"/><path class="cls-2" d="M63.89,176.88s-2.29-.44-4-5.47-2.43-14.73-2.43-14.81h-2c0,.09-.63,9.69-2.43,14.82s-4,5.46-4,5.47l-.13,0V179H64V176.9Z"/><path class="cls-2" d="M170.12,178.51h0a2.07,2.07,0,0,0-1.48-.61,2.05,2.05,0,0,0-1.47.61h0c-9.16,8.26-57.83,53.72-57.83,87.28,0,28.53,20.17,30.78,26.28,30.78s27.29-3.25,27.29-29a1.76,1.76,0,0,1,1.76-1.76,1.74,1.74,0,0,1,1.76,1.73h4.4a1.76,1.76,0,0,1,3.51,0c0,25.78,21.24,29,27.35,29S228,294.32,228,265.79C228,232.23,179.28,186.77,170.12,178.51Z"/><path class="cls-2" d="M185.09,312s-5-1-8.88-12c-3.94-11.24-5.33-32.29-5.34-32.46l-4.45,0c0,.2-1.4,21.25-5.34,32.49-3.87,11-8.84,12-8.89,12l-.28,0v4.69h33.46v-4.69Z"/></svg>