<svg id="Layer_1" data-name="Layer 1" xmlns="http://www.w3.org/2000/svg" viewBox="0 0 251.43 334.21"><defs><style>.cls-1{fill:#f4f3ef;}.cls-2{fill:#272528;}</style></defs><rect class="cls-1" width="251.43" height="334.21" rx="21.02"/><path class="cls-2" d="M73,56.21c.74.37,1.47.74,2.21,1.09,4.44,2.12,8.55,4.72,11.3,8.92,3.58,5.48,3.93,11.42,1.61,17.41-2.59,6.67-8,10.35-14.5,12.68-7.89,2.83-16,3.1-24.2,1.83-5.94-.93-11.51-3-16-7.16a18.37,18.37,0,0,1-6.29-15c.31-7.16,4.15-12.07,9.89-15.82.66-.43,1.34-.84,2.18-1.37-.48-.53-.84-1-1.24-1.4-5.63-5.83-7.86-12.59-5.64-20.54a16.25,16.25,0,0,1,5.38-8c5.39-4.57,11.8-6.43,18.74-6.83a34.15,34.15,0,0,1,16.92,3c4,1.92,7.52,4.57,9.46,8.78a15.27,15.27,0,0,1-4.07,18.3C77,53.59,75,54.79,73,56.21ZM40.39,75.39c.3,4.74,1.64,9.2,5,12.84,3.91,4.27,8.86,5.75,14.55,5.34,6.41-.46,10.41-3.5,12.3-9.6,1.44-4.67.3-9.28-3.39-11.82a37.19,37.19,0,0,0-7.56-3.87c-4.87-1.88-9.85-3.48-14.81-5.14a1.74,1.74,0,0,0-1.41.4C41.62,66.7,40.52,70.81,40.39,75.39ZM47.06,38c.21,4.33,1.69,7.77,5.08,10.23,3.55,2.57,7.76,3.61,11.82,5,.37.12,1-.2,1.36-.45C71.16,49.15,73,41.52,71.09,35.6c-.79-2.47-1.79-5-4-6.38a15,15,0,0,0-14.1-1C48.62,30,47.34,33.92,47.06,38Z"/><path class="cls-2" d="M81.94,145.18a13.6,13.6,0,0,0-16.21-2.29h0a.92.92,0,0,1-.21.13l-.24.14a1.29,1.29,0,0,1-1.36-.27,1.27,1.27,0,0,1-.37-.91,1.22,1.22,0,0,1,.37-.9l0,0A14.23,14.23,0,0,0,66,139.28a13.62,13.62,0,1,0-19.26,0A13.69,13.69,0,0,0,49,141.05l0,0a1.28,1.28,0,0,1,0,1.81,1.26,1.26,0,0,1-.9.37h0a1.26,1.26,0,0,1-.9-.37l0,0a13.63,13.63,0,0,0-16.25,2.26,13.62,13.62,0,1,0,23.1,11.54.75.75,0,0,1,1.43.32c0,.08-.63,8.93-2.43,14.05s-4,5.47-4,5.48l-.13,0v2.13H64v-2.13l-.13,0s-2.29-.44-4-5.48-2.43-14-2.44-14a.76.76,0,0,1,1.44-.33,13.61,13.61,0,1,0,23.1-11.54Z"/><path class="cls-2" d="M224.68,242.5a29.86,29.86,0,0,0-35.55-5v0a2.27,2.27,0,0,1-.46.3l-.51.31a2.87,2.87,0,0,1-3-.61,2.82,2.82,0,0,1-.82-2,2.74,2.74,0,0,1,.83-2l-.1-.1a29.9,29.9,0,1,0-32.74.06l0,0a2.79,2.79,0,0,1,0,4,2.83,2.83,0,0,1-2,.83h0a2.83,2.83,0,0,1-2-.83l-.09.09a29.89,29.89,0,1,0,15,30.27,1.65,1.65,0,0,1,3.14.69c0,.19-1.39,19.58-5.34,30.83-3.86,11-8.83,12-8.88,12l-.28,0v4.69h33.46v-4.68l-.28-.05c-.05,0-5-1-8.88-12-3.94-11.25-5.33-30.64-5.34-30.81a1.65,1.65,0,0,1,3.15-.7,29.85,29.85,0,1,0,50.66-25.32Z"/></svg>