<svg id="Layer_1" data-name="Layer 1" xmlns="http://www.w3.org/2000/svg" viewBox="0 0 251.43 334.21"><defs><style>.cls-1{fill:#f4f3ef;}.cls-2{fill:#e12140;}</style></defs><rect class="cls-1" width="251.43" height="334.21" rx="21.02"/><path class="cls-2" d="M73,56.21c.74.37,1.47.74,2.21,1.09,4.44,2.12,8.55,4.72,11.3,8.92,3.58,5.48,3.93,11.42,1.61,17.41-2.59,6.67-8,10.35-14.5,12.68-7.89,2.83-16,3.1-24.2,1.83-5.94-.93-11.51-3-16-7.16a18.37,18.37,0,0,1-6.29-15c.31-7.16,4.15-12.07,9.89-15.82.66-.43,1.34-.84,2.18-1.37-.48-.53-.84-1-1.24-1.4-5.63-5.83-7.86-12.59-5.64-20.54a16.25,16.25,0,0,1,5.38-8c5.39-4.57,11.8-6.43,18.74-6.83a34.15,34.15,0,0,1,16.92,3c4,1.92,7.52,4.57,9.46,8.78a15.27,15.27,0,0,1-4.07,18.3C77,53.59,75,54.79,73,56.21ZM40.39,75.39c.3,4.74,1.64,9.2,5,12.84,3.91,4.27,8.86,5.75,14.55,5.34,6.41-.46,10.41-3.5,12.3-9.6,1.44-4.67.3-9.28-3.39-11.82a37.19,37.19,0,0,0-7.56-3.87c-4.87-1.88-9.85-3.48-14.81-5.14a1.74,1.74,0,0,0-1.41.4C41.62,66.7,40.52,70.81,40.39,75.39ZM47.06,38c.21,4.33,1.69,7.77,5.08,10.23,3.55,2.57,7.76,3.61,11.82,5,.37.12,1-.2,1.36-.45C71.16,49.15,73,41.52,71.09,35.6c-.79-2.47-1.79-5-4-6.38a15,15,0,0,0-14.1-1C48.62,30,47.34,33.92,47.06,38Z"/><path class="cls-2" d="M55.82,115.94c-3.27,8.32-19.86,27.49-26.68,30.73a.52.52,0,0,0,0,1C36,151,52.54,170.44,55.82,178.81a.63.63,0,0,0,1.14,0c3.28-8.37,19.87-27.83,26.68-31.18a.52.52,0,0,0,0-1c-6.82-3.24-23.41-22.41-26.68-30.73A.63.63,0,0,0,55.82,115.94Z"/><path class="cls-2" d="M167.4,178.39c-7.19,18.24-43.56,60.27-58.51,67.38a1.14,1.14,0,0,0,0,2.11c14.94,7.34,51.34,50,58.53,68.38a1.37,1.37,0,0,0,2.49,0c7.18-18.37,43.58-61,58.52-68.38a1.14,1.14,0,0,0,0-2.11c-14.95-7.11-51.32-49.14-58.5-67.38A1.37,1.37,0,0,0,167.4,178.39Z"/></svg>