<svg id="Layer_1" data-name="Layer 1" xmlns="http://www.w3.org/2000/svg" viewBox="0 0 251.43 334.21"><defs><style>.cls-1{fill:#f4f3ef;}.cls-2{fill:#e12140;}</style></defs><rect class="cls-1" width="251.43" height="334.21" rx="21.02"/><path class="cls-2" d="M73,56.21c.74.37,1.47.74,2.21,1.09,4.44,2.12,8.55,4.72,11.3,8.92,3.58,5.48,3.93,11.42,1.61,17.41-2.59,6.67-8,10.35-14.5,12.68-7.89,2.83-16,3.1-24.2,1.83-5.94-.93-11.51-3-16-7.16a18.37,18.37,0,0,1-6.29-15c.31-7.16,4.15-12.07,9.89-15.82.66-.43,1.34-.84,2.18-1.37-.48-.53-.84-1-1.24-1.4-5.63-5.83-7.86-12.59-5.64-20.54a16.25,16.25,0,0,1,5.38-8c5.39-4.57,11.8-6.43,18.74-6.83a34.15,34.15,0,0,1,16.92,3c4,1.92,7.52,4.57,9.46,8.78a15.27,15.27,0,0,1-4.07,18.3C77,53.59,75,54.79,73,56.21ZM40.39,75.39c.3,4.74,1.64,9.2,5,12.84,3.91,4.27,8.86,5.75,14.55,5.34,6.41-.46,10.41-3.5,12.3-9.6,1.44-4.67.3-9.28-3.39-11.82a37.19,37.19,0,0,0-7.56-3.87c-4.87-1.88-9.85-3.48-14.81-5.14a1.74,1.74,0,0,0-1.41.4C41.62,66.7,40.52,70.81,40.39,75.39ZM47.06,38c.21,4.33,1.69,7.77,5.08,10.23,3.55,2.57,7.76,3.61,11.82,5,.37.12,1-.2,1.36-.45C71.16,49.15,73,41.52,71.09,35.6c-.79-2.47-1.79-5-4-6.38a15,15,0,0,0-14.1-1C48.62,30,47.34,33.92,47.06,38Z"/><path class="cls-2" d="M70.15,118.28c-7.6,0-13.76,5.73-13.76,12.8,0-7.07-6.16-12.8-13.76-12.8S28.87,124,28.87,131.08v0c0,10,5.63,15.21,14.22,24.68A79.67,79.67,0,0,1,56,176.16a.46.46,0,0,0,.88,0,79.67,79.67,0,0,1,12.86-20.37c8.58-9.47,14.22-14.66,14.22-24.68v0C83.91,124,77.75,118.28,70.15,118.28Z"/><path class="cls-2" d="M198.82,183.52c-16.67,0-30.18,12.56-30.18,28.06,0-15.5-13.51-28.06-30.18-28.06s-30.17,12.56-30.17,28.06v.07c0,22,12.36,33.35,31.18,54.13,15.48,17.08,25.23,37.82,28.2,44.66a1,1,0,0,0,1.94,0c3-6.84,12.72-27.58,28.2-44.66C216.63,245,229,233.63,229,211.65v-.07C229,196.08,215.49,183.52,198.82,183.52Z"/></svg>