<svg id="Layer_1" data-name="Layer 1" xmlns="http://www.w3.org/2000/svg" viewBox="0 0 251.43 334.21"><defs><style>.cls-1{fill:#f4f3ef;}.cls-2{fill:#272528;}</style></defs><rect class="cls-1" width="251.43" height="334.21" rx="21.02"/><path class="cls-2" d="M73,56.21c.74.37,1.47.74,2.21,1.09,4.44,2.12,8.55,4.72,11.3,8.92,3.58,5.48,3.93,11.42,1.61,17.41-2.59,6.67-8,10.35-14.5,12.68-7.89,2.83-16,3.1-24.2,1.83-5.94-.93-11.51-3-16-7.16a18.37,18.37,0,0,1-6.29-15c.31-7.16,4.15-12.07,9.89-15.82.66-.43,1.34-.84,2.18-1.37-.48-.53-.84-1-1.24-1.4-5.63-5.83-7.86-12.59-5.64-20.54a16.25,16.25,0,0,1,5.38-8c5.39-4.57,11.8-6.43,18.74-6.83a34.15,34.15,0,0,1,16.92,3c4,1.92,7.52,4.57,9.46,8.78a15.27,15.27,0,0,1-4.07,18.3C77,53.59,75,54.79,73,56.21ZM40.39,75.39c.3,4.74,1.64,9.2,5,12.84,3.91,4.27,8.86,5.75,14.55,5.34,6.41-.46,10.41-3.5,12.3-9.6,1.44-4.67.3-9.28-3.39-11.82a37.19,37.19,0,0,0-7.56-3.87c-4.87-1.88-9.85-3.48-14.81-5.14a1.74,1.74,0,0,0-1.41.4C41.62,66.7,40.52,70.81,40.39,75.39ZM47.06,38c.21,4.33,1.69,7.77,5.08,10.23,3.55,2.57,7.76,3.61,11.82,5,.37.12,1-.2,1.36-.45C71.16,49.15,73,41.52,71.09,35.6c-.79-2.47-1.79-5-4-6.38a15,15,0,0,0-14.1-1C48.62,30,47.34,33.92,47.06,38Z"/><path class="cls-2" d="M57.06,116h0a.94.94,0,0,0-1.34,0h0c-4.18,3.76-26.38,24.5-26.38,39.8,0,13,9.2,14,12,14s12.45-1.49,12.45-13.24a.8.8,0,0,1,.8-.8.78.78,0,0,1,.8.78h2a.8.8,0,0,1,1.6,0c0,11.75,9.69,13.24,12.47,13.24s12-1,12-14C83.44,140.5,61.24,119.76,57.06,116Z"/><path class="cls-2" d="M63.89,176.88s-2.29-.44-4-5.47-2.43-14.73-2.43-14.81h-2c0,.09-.63,9.69-2.43,14.82s-4,5.46-4,5.47l-.13,0V179H64V176.9Z"/><path class="cls-2" d="M170.12,178.51h0a2.07,2.07,0,0,0-1.48-.61,2.05,2.05,0,0,0-1.47.61h0c-9.16,8.26-57.83,53.72-57.83,87.28,0,28.53,20.17,30.78,26.28,30.78s27.29-3.25,27.29-29a1.76,1.76,0,0,1,1.76-1.76,1.74,1.74,0,0,1,1.76,1.73h4.4a1.76,1.76,0,0,1,3.51,0c0,25.78,21.24,29,27.35,29S228,294.32,228,265.79C228,232.23,179.28,186.77,170.12,178.51Z"/><path class="cls-2" d="M185.09,312s-5-1-8.88-12c-3.94-11.24-5.33-32.29-5.34-32.46l-4.45,0c0,.2-1.4,21.25-5.34,32.49-3.87,11-8.84,12-8.89,12l-.28,0v4.69h33.46v-4.69Z"/></svg>