<svg id="Layer_1" data-name="Layer 1" xmlns="http://www.w3.org/2000/svg" viewBox="0 0 251.43 334.21"><defs><style>.cls-1{fill:#f4f3ef;}.cls-2{fill:#272528;}</style></defs><rect class="cls-1" width="251.43" height="334.21" rx="21.02"/><path class="cls-2" d="M71.37,64.59C69.08,66,67,67.48,64.73,68.66c-9,4.74-22,3-29.35-3.93a21.4,21.4,0,0,1-6.72-14.81A27.33,27.33,0,0,1,30,38.61,23.1,23.1,0,0,1,43.42,24.7a35.44,35.44,0,0,1,26-.75c6.84,2.43,11.38,7.38,14.47,13.72,4,8.28,4.74,17.11,3.87,26.14a47,47,0,0,1-5.26,18.32c-4.76,8.7-11.89,14.3-21.76,16.06a33.2,33.2,0,0,1-18.35-1.43A27.44,27.44,0,0,1,39.21,95c-.2-.12-.54-.37-.52-.43a27.4,27.4,0,0,1,1.63-3.36,1.53,1.53,0,0,1,1.36-.32c2.37.69,4.66,1.72,7.07,2.18,7.55,1.43,15.68-1.6,19.12-9.88a49.92,49.92,0,0,0,3.58-18A4.39,4.39,0,0,0,71.37,64.59Zm-27-20.34a29.94,29.94,0,0,0,1.91,11.52c2.78,6.8,7.83,9.87,14.79,8.57,5.42-1,9.43-6,10.35-12.58a29,29,0,0,0-2.59-16.52c-3-6.43-7.51-9-14.55-7.92a8.86,8.86,0,0,0-6.16,3.77C45.23,35.3,44.47,40.11,44.37,44.25Z"/><path class="cls-2" d="M81.94,145.18a13.6,13.6,0,0,0-16.21-2.29h0a.92.92,0,0,1-.21.13l-.24.14a1.29,1.29,0,0,1-1.36-.27,1.27,1.27,0,0,1-.37-.91,1.22,1.22,0,0,1,.37-.9l0,0A14.23,14.23,0,0,0,66,139.28a13.62,13.62,0,1,0-19.26,0A13.69,13.69,0,0,0,49,141.05l0,0a1.28,1.28,0,0,1,0,1.81,1.26,1.26,0,0,1-.9.37h0a1.26,1.26,0,0,1-.9-.37l0,0a13.63,13.63,0,0,0-16.25,2.26,13.62,13.62,0,1,0,23.1,11.54.75.75,0,0,1,1.43.32c0,.08-.63,8.93-2.43,14.05s-4,5.47-4,5.48l-.13,0v2.13H64v-2.13l-.13,0s-2.29-.44-4-5.48-2.43-14-2.44-14a.76.76,0,0,1,1.44-.33,13.61,13.61,0,1,0,23.1-11.54Z"/><path class="cls-2" d="M224.68,242.5a29.86,29.86,0,0,0-35.55-5v0a2.27,2.27,0,0,1-.46.3l-.51.31a2.87,2.87,0,0,1-3-.61,2.82,2.82,0,0,1-.82-2,2.74,2.74,0,0,1,.83-2l-.1-.1a29.9,29.9,0,1,0-32.74.06l0,0a2.79,2.79,0,0,1,0,4,2.83,2.83,0,0,1-2,.83h0a2.83,2.83,0,0,1-2-.83l-.09.09a29.89,29.89,0,1,0,15,30.27,1.65,1.65,0,0,1,3.14.69c0,.19-1.39,19.58-5.34,30.83-3.86,11-8.83,12-8.88,12l-.28,0v4.69h33.46v-4.68l-.28-.05c-.05,0-5-1-8.88-12-3.94-11.25-5.33-30.64-5.34-30.81a1.65,1.65,0,0,1,3.15-.7,29.85,29.85,0,1,0,50.66-25.32Z"/></svg>