<svg id="Layer_1" data-name="Layer 1" xmlns="http://www.w3.org/2000/svg" viewBox="0 0 251.43 334.21"><defs><style>.cls-1{fill:#f4f3ef;}.cls-2{fill:#e12140;}</style></defs><rect class="cls-1" width="251.43" height="334.21" rx="21.02"/><path class="cls-2" d="M71.37,64.59C69.08,66,67,67.48,64.73,68.66c-9,4.74-22,3-29.35-3.93a21.4,21.4,0,0,1-6.72-14.81A27.33,27.33,0,0,1,30,38.61,23.1,23.1,0,0,1,43.42,24.7a35.44,35.44,0,0,1,26-.75c6.84,2.43,11.38,7.38,14.47,13.72,4,8.28,4.74,17.11,3.87,26.14a47,47,0,0,1-5.26,18.32c-4.76,8.7-11.89,14.3-21.76,16.06a33.2,33.2,0,0,1-18.35-1.43A27.44,27.44,0,0,1,39.21,95c-.2-.12-.54-.37-.52-.43a27.4,27.4,0,0,1,1.63-3.36,1.53,1.53,0,0,1,1.36-.32c2.37.69,4.66,1.72,7.07,2.18,7.55,1.43,15.68-1.6,19.12-9.88a49.92,49.92,0,0,0,3.58-18A4.39,4.39,0,0,0,71.37,64.59Zm-27-20.34a29.94,29.94,0,0,0,1.91,11.52c2.78,6.8,7.83,9.87,14.79,8.57,5.42-1,9.43-6,10.35-12.58a29,29,0,0,0-2.59-16.52c-3-6.43-7.51-9-14.55-7.92a8.86,8.86,0,0,0-6.16,3.77C45.23,35.3,44.47,40.11,44.37,44.25Z"/><path class="cls-2" d="M55.82,115.94c-3.27,8.32-19.86,27.49-26.68,30.73a.52.52,0,0,0,0,1C36,151,52.54,170.44,55.82,178.81a.63.63,0,0,0,1.14,0c3.28-8.37,19.87-27.83,26.68-31.18a.52.52,0,0,0,0-1c-6.82-3.24-23.41-22.41-26.68-30.73A.63.63,0,0,0,55.82,115.94Z"/><path class="cls-2" d="M167.4,178.39c-7.19,18.24-43.56,60.27-58.51,67.38a1.14,1.14,0,0,0,0,2.11c14.94,7.34,51.34,50,58.53,68.38a1.37,1.37,0,0,0,2.49,0c7.18-18.37,43.58-61,58.52-68.38a1.14,1.14,0,0,0,0-2.11c-14.95-7.11-51.32-49.14-58.5-67.38A1.37,1.37,0,0,0,167.4,178.39Z"/></svg>