<svg id="Layer_1" data-name="Layer 1" xmlns="http://www.w3.org/2000/svg" viewBox="0 0 251.43 334.21"><defs><style>.cls-1{fill:#f4f3ef;}.cls-2{fill:#e12140;}</style></defs><rect class="cls-1" width="251.43" height="334.21" rx="21.02"/><path class="cls-2" d="M71.37,64.59C69.08,66,67,67.48,64.73,68.66c-9,4.74-22,3-29.35-3.93a21.4,21.4,0,0,1-6.72-14.81A27.33,27.33,0,0,1,30,38.61,23.1,23.1,0,0,1,43.42,24.7a35.44,35.44,0,0,1,26-.75c6.84,2.43,11.38,7.38,14.47,13.72,4,8.28,4.74,17.11,3.87,26.14a47,47,0,0,1-5.26,18.32c-4.76,8.7-11.89,14.3-21.76,16.06a33.2,33.2,0,0,1-18.35-1.43A27.44,27.44,0,0,1,39.21,95c-.2-.12-.54-.37-.52-.43a27.4,27.4,0,0,1,1.63-3.36,1.53,1.53,0,0,1,1.36-.32c2.37.69,4.66,1.72,7.07,2.18,7.55,1.43,15.68-1.6,19.12-9.88a49.92,49.92,0,0,0,3.58-18A4.39,4.39,0,0,0,71.37,64.59Zm-27-20.34a29.94,29.94,0,0,0,1.91,11.52c2.78,6.8,7.83,9.87,14.79,8.57,5.42-1,9.43-6,10.35-12.58a29,29,0,0,0-2.59-16.52c-3-6.43-7.51-9-14.55-7.92a8.86,8.86,0,0,0-6.16,3.77C45.23,35.3,44.47,40.11,44.37,44.25Z"/><path class="cls-2" d="M70.15,118.28c-7.6,0-13.76,5.73-13.76,12.8,0-7.07-6.16-12.8-13.76-12.8S28.87,124,28.87,131.08v0c0,10,5.63,15.21,14.22,24.68A79.67,79.67,0,0,1,56,176.16a.46.46,0,0,0,.88,0,79.67,79.67,0,0,1,12.86-20.37c8.58-9.47,14.22-14.66,14.22-24.68v0C83.91,124,77.75,118.28,70.15,118.28Z"/><path class="cls-2" d="M198.82,183.52c-16.67,0-30.18,12.56-30.18,28.06,0-15.5-13.51-28.06-30.18-28.06s-30.17,12.56-30.17,28.06v.07c0,22,12.36,33.35,31.18,54.13,15.48,17.08,25.23,37.82,28.2,44.66a1,1,0,0,0,1.94,0c3-6.84,12.72-27.58,28.2-44.66C216.63,245,229,233.63,229,211.65v-.07C229,196.08,215.49,183.52,198.82,183.52Z"/></svg>