<svg id="Layer_1" data-name="Layer 1" xmlns="http://www.w3.org/2000/svg" viewBox="0 0 251.43 334.21"><defs><style>.cls-1{fill:#f4f3ef;}.cls-2{fill:#272528;}</style></defs><rect class="cls-1" width="251.43" height="334.21" rx="21.02"/><path class="cls-2" d="M71.37,64.59C69.08,66,67,67.48,64.73,68.66c-9,4.74-22,3-29.35-3.93a21.4,21.4,0,0,1-6.72-14.81A27.33,27.33,0,0,1,30,38.61,23.1,23.1,0,0,1,43.42,24.7a35.44,35.44,0,0,1,26-.75c6.84,2.43,11.38,7.38,14.47,13.72,4,8.28,4.74,17.11,3.87,26.14a47,47,0,0,1-5.26,18.32c-4.76,8.7-11.89,14.3-21.76,16.06a33.2,33.2,0,0,1-18.35-1.43A27.44,27.44,0,0,1,39.21,95c-.2-.12-.54-.37-.52-.43a27.4,27.4,0,0,1,1.63-3.36,1.53,1.53,0,0,1,1.36-.32c2.37.69,4.66,1.72,7.07,2.18,7.55,1.43,15.68-1.6,19.12-9.88a49.92,49.92,0,0,0,3.58-18A4.39,4.39,0,0,0,71.37,64.59Zm-27-20.34a29.94,29.94,0,0,0,1.91,11.52c2.78,6.8,7.83,9.87,14.79,8.57,5.42-1,9.43-6,10.35-12.58a29,29,0,0,0-2.59-16.52c-3-6.43-7.51-9-14.55-7.92a8.86,8.86,0,0,0-6.16,3.77C45.23,35.3,44.47,40.11,44.37,44.25Z"/><path class="cls-2" d="M57.06,116h0a.94.94,0,0,0-1.34,0h0c-4.18,3.76-26.38,24.5-26.38,39.8,0,13,9.2,14,12,14s12.45-1.49,12.45-13.24a.8.8,0,0,1,.8-.8.78.78,0,0,1,.8.78h2a.8.8,0,0,1,1.6,0c0,11.75,9.69,13.24,12.47,13.24s12-1,12-14C83.44,140.5,61.24,119.76,57.06,116Z"/><path class="cls-2" d="M63.89,176.88s-2.29-.44-4-5.47-2.43-14.73-2.43-14.81h-2c0,.09-.63,9.69-2.43,14.82s-4,5.46-4,5.47l-.13,0V179H64V176.9Z"/><path class="cls-2" d="M170.12,178.51h0a2.07,2.07,0,0,0-1.48-.61,2.05,2.05,0,0,0-1.47.61h0c-9.16,8.26-57.83,53.72-57.83,87.28,0,28.53,20.17,30.78,26.28,30.78s27.29-3.25,27.29-29a1.76,1.76,0,0,1,1.76-1.76,1.74,1.74,0,0,1,1.76,1.73h4.4a1.76,1.76,0,0,1,3.51,0c0,25.78,21.24,29,27.35,29S228,294.32,228,265.79C228,232.23,179.28,186.77,170.12,178.51Z"/><path class="cls-2" d="M185.09,312s-5-1-8.88-12c-3.94-11.24-5.33-32.29-5.34-32.46l-4.45,0c0,.2-1.4,21.25-5.34,32.49-3.87,11-8.84,12-8.89,12l-.28,0v4.69h33.46v-4.69Z"/></svg>