<svg id="Layer_1" data-name="Layer 1" xmlns="http://www.w3.org/2000/svg" viewBox="0 0 251.43 334.21"><defs><style>.cls-1{fill:#f4f3ef;}.cls-2{fill:#272528;}</style></defs><rect class="cls-1" width="251.43" height="334.21" rx="21.02"/><path class="cls-2" d="M224.68,242.5a29.86,29.86,0,0,0-35.55-5v0a2.27,2.27,0,0,1-.46.3l-.51.31a2.87,2.87,0,0,1-3-.61,2.82,2.82,0,0,1-.82-2,2.74,2.74,0,0,1,.83-2l-.1-.1a29.9,29.9,0,1,0-32.74.06l0,0a2.79,2.79,0,0,1,0,4,2.83,2.83,0,0,1-2,.83h0a2.83,2.83,0,0,1-2-.83l-.09.09a29.89,29.89,0,1,0,15,30.27,1.65,1.65,0,0,1,3.14.69c0,.19-1.39,19.58-5.34,30.83-3.86,11-8.83,12-8.88,12l-.28,0v4.69h33.46v-4.68l-.28-.05c-.05,0-5-1-8.88-12-3.94-11.25-5.33-30.64-5.34-30.81a1.65,1.65,0,0,1,3.15-.7,29.85,29.85,0,1,0,50.66-25.32Z"/><path class="cls-2" d="M17.42,96.71c0-1.51-.46-3,.07-4,.44-.82,2-1.12,3.05-1.51,3.42-1.23,5.51-3.86,7-6.92,2.72-5.53,5.26-11.15,7.78-16.77,5-11.12,9.88-22.27,14.83-33.41a29.68,29.68,0,0,0,2.51-9.86c.08-1.15.58-1.51,1.63-1.57,2.24-.14,4.48-.31,6.71-.58a1.75,1.75,0,0,1,2.13,1.21q7,15.39,14,30.71c4.76,10.36,9.51,20.71,14.34,31a19,19,0,0,0,3.07,4.64,10.71,10.71,0,0,0,3.69,2.4,1.59,1.59,0,0,1,1.2,1.72c0,3.45.34,2.85-2.78,2.86-9.78,0-19.55,0-29.33,0-1.29,0-1.82-.37-1.62-1.65a2.06,2.06,0,0,0,0-.7c-.29-1.61.38-2.26,2-2.59,3.23-.65,4.71-3,3.84-6.12a31.73,31.73,0,0,0-2.45-5.92,5.37,5.37,0,0,0-5.07-3q-10.59,0-21.19,0a5.18,5.18,0,0,0-4.77,2.72,17.48,17.48,0,0,0-1.85,4.79c-.58,3.15.65,5.16,3.6,6.49a13.32,13.32,0,0,0,2.37.83c3,.74,2.94.72,2.94,3.78,0,1.12-.45,1.31-1.42,1.3-4.49,0-9,0-13.48,0H17.42ZM53.37,70.64h7.71c3.1,0,3.66-.86,2.36-3.62l-.06-.12q-4.43-9.52-8.86-19a13.07,13.07,0,0,0-1.22-1.78,9.61,9.61,0,0,0-1.36,1.79c-3,6.6-5.89,13.21-8.83,19.83-.9,2.05-.41,2.88,1.84,2.92C47.75,70.68,50.56,70.64,53.37,70.64Z"/><path class="cls-2" d="M81.94,145.18a13.6,13.6,0,0,0-16.21-2.29h0a.92.92,0,0,1-.21.13l-.24.14a1.29,1.29,0,0,1-1.36-.27,1.27,1.27,0,0,1-.37-.91,1.22,1.22,0,0,1,.37-.9l0,0A14.23,14.23,0,0,0,66,139.28a13.62,13.62,0,1,0-19.26,0A13.69,13.69,0,0,0,49,141.05l0,0a1.28,1.28,0,0,1,0,1.81,1.26,1.26,0,0,1-.9.37h0a1.26,1.26,0,0,1-.9-.37l0,0a13.63,13.63,0,0,0-16.25,2.26,13.62,13.62,0,1,0,23.1,11.54.75.75,0,0,1,1.43.32c0,.08-.63,8.93-2.43,14.05s-4,5.47-4,5.48l-.13,0v2.13H64v-2.13l-.13,0s-2.29-.44-4-5.48-2.43-14-2.44-14a.76.76,0,0,1,1.44-.33,13.61,13.61,0,1,0,23.1-11.54Z"/></svg>