<svg id="Layer_1" data-name="Layer 1" xmlns="http://www.w3.org/2000/svg" viewBox="0 0 251.43 334.21"><defs><style>.cls-1{fill:#f4f3ef;}.cls-2{fill:#e12140;}</style></defs><rect class="cls-1" width="251.43" height="334.21" rx="21.02"/><path class="cls-2" d="M167.4,178.39c-7.19,18.24-43.56,60.27-58.51,67.38a1.14,1.14,0,0,0,0,2.11c14.94,7.34,51.34,50,58.53,68.38a1.37,1.37,0,0,0,2.49,0c7.18-18.37,43.58-61,58.52-68.38a1.14,1.14,0,0,0,0-2.11c-14.95-7.11-51.32-49.14-58.5-67.38A1.37,1.37,0,0,0,167.4,178.39Z"/><path class="cls-2" d="M17.42,96.71c0-1.51-.46-3,.07-4,.44-.82,2-1.12,3.05-1.51,3.42-1.23,5.51-3.86,7-6.92,2.72-5.53,5.26-11.15,7.78-16.77,5-11.12,9.88-22.27,14.83-33.41a29.68,29.68,0,0,0,2.51-9.86c.08-1.15.58-1.51,1.63-1.57,2.24-.14,4.48-.31,6.71-.58a1.75,1.75,0,0,1,2.13,1.21q7,15.39,14,30.71c4.76,10.36,9.51,20.71,14.34,31a19,19,0,0,0,3.07,4.64,10.71,10.71,0,0,0,3.69,2.4,1.59,1.59,0,0,1,1.2,1.72c0,3.45.34,2.85-2.78,2.86-9.78,0-19.55,0-29.33,0-1.29,0-1.82-.37-1.62-1.65a2.06,2.06,0,0,0,0-.7c-.29-1.61.38-2.26,2-2.59,3.23-.65,4.71-3,3.84-6.12a31.73,31.73,0,0,0-2.45-5.92,5.37,5.37,0,0,0-5.07-3q-10.59,0-21.19,0a5.18,5.18,0,0,0-4.77,2.72,17.48,17.48,0,0,0-1.85,4.79c-.58,3.15.65,5.16,3.6,6.49a13.32,13.32,0,0,0,2.37.83c3,.74,2.94.72,2.94,3.78,0,1.12-.45,1.31-1.42,1.3-4.49,0-9,0-13.48,0H17.42ZM53.37,70.64h7.71c3.1,0,3.66-.86,2.36-3.62l-.06-.12q-4.43-9.52-8.86-19a13.07,13.07,0,0,0-1.22-1.78,9.61,9.61,0,0,0-1.36,1.79c-3,6.6-5.89,13.21-8.83,19.83-.9,2.05-.41,2.88,1.84,2.92C47.75,70.68,50.56,70.64,53.37,70.64Z"/><path class="cls-2" d="M55.82,115.94c-3.27,8.32-19.86,27.49-26.68,30.73a.52.52,0,0,0,0,1C36,151,52.54,170.44,55.82,178.81a.63.63,0,0,0,1.14,0c3.28-8.37,19.87-27.83,26.68-31.18a.52.52,0,0,0,0-1c-6.82-3.24-23.41-22.41-26.68-30.73A.63.63,0,0,0,55.82,115.94Z"/></svg>