<svg id="Layer_1" data-name="Layer 1" xmlns="http://www.w3.org/2000/svg" viewBox="0 0 251.43 334.21"><defs><style>.cls-1{fill:#f4f3ef;}.cls-2{fill:#e12140;}</style></defs><rect class="cls-1" width="251.43" height="334.21" rx="21.02"/><path class="cls-2" d="M198.82,183.52c-16.67,0-30.18,12.56-30.18,28.06,0-15.5-13.51-28.06-30.18-28.06s-30.17,12.56-30.17,28.06v.07c0,22,12.36,33.35,31.18,54.13,15.48,17.08,25.23,37.82,28.2,44.66a1,1,0,0,0,1.94,0c3-6.84,12.72-27.58,28.2-44.66C216.63,245,229,233.63,229,211.65v-.07C229,196.08,215.49,183.52,198.82,183.52Z"/><path class="cls-2" d="M17.42,96.71c0-1.51-.46-3,.07-4,.44-.82,2-1.12,3.05-1.51,3.42-1.23,5.51-3.86,7-6.92,2.72-5.53,5.26-11.15,7.78-16.77,5-11.12,9.88-22.27,14.83-33.41a29.68,29.68,0,0,0,2.51-9.86c.08-1.15.58-1.51,1.63-1.57,2.24-.14,4.48-.31,6.71-.58a1.75,1.75,0,0,1,2.13,1.21q7,15.39,14,30.71c4.76,10.36,9.51,20.71,14.34,31a19,19,0,0,0,3.07,4.64,10.71,10.71,0,0,0,3.69,2.4,1.59,1.59,0,0,1,1.2,1.72c0,3.45.34,2.85-2.78,2.86-9.78,0-19.55,0-29.33,0-1.29,0-1.82-.37-1.62-1.65a2.06,2.06,0,0,0,0-.7c-.29-1.61.38-2.26,2-2.59,3.23-.65,4.71-3,3.84-6.12a31.73,31.73,0,0,0-2.45-5.92,5.37,5.37,0,0,0-5.07-3q-10.59,0-21.19,0a5.18,5.18,0,0,0-4.77,2.72,17.48,17.48,0,0,0-1.85,4.79c-.58,3.15.65,5.16,3.6,6.49a13.32,13.32,0,0,0,2.37.83c3,.74,2.94.72,2.94,3.78,0,1.12-.45,1.31-1.42,1.3-4.49,0-9,0-13.48,0H17.42ZM53.37,70.64h7.71c3.1,0,3.66-.86,2.36-3.62l-.06-.12q-4.43-9.52-8.86-19a13.07,13.07,0,0,0-1.22-1.78,9.61,9.61,0,0,0-1.36,1.79c-3,6.6-5.89,13.21-8.83,19.83-.9,2.05-.41,2.88,1.84,2.92C47.75,70.68,50.56,70.64,53.37,70.64Z"/><path class="cls-2" d="M70.15,118.28c-7.6,0-13.76,5.73-13.76,12.8,0-7.07-6.16-12.8-13.76-12.8S28.87,124,28.87,131.08v0c0,10,5.63,15.21,14.22,24.68A79.67,79.67,0,0,1,56,176.16a.46.46,0,0,0,.88,0,79.67,79.67,0,0,1,12.86-20.37c8.58-9.47,14.22-14.66,14.22-24.68v0C83.91,124,77.75,118.28,70.15,118.28Z"/></svg>