<svg id="Layer_1" data-name="Layer 1" xmlns="http://www.w3.org/2000/svg" viewBox="0 0 251.43 334.21"><defs><style>.cls-1{fill:#f4f3ef;}.cls-2{fill:#272528;}</style></defs><rect class="cls-1" width="251.43" height="334.21" rx="21.02"/><path class="cls-2" d="M170.12,178.51h0a2.07,2.07,0,0,0-1.48-.61,2.05,2.05,0,0,0-1.47.61h0c-9.16,8.26-57.83,53.72-57.83,87.28,0,28.53,20.17,30.78,26.28,30.78s27.29-3.25,27.29-29a1.76,1.76,0,0,1,1.76-1.76,1.74,1.74,0,0,1,1.76,1.73h4.4a1.76,1.76,0,0,1,3.51,0c0,25.78,21.24,29,27.35,29S228,294.32,228,265.79C228,232.23,179.28,186.77,170.12,178.51Z"/><path class="cls-2" d="M185.09,312s-5-1-8.88-12c-3.94-11.24-5.33-32.29-5.34-32.46l-4.45,0c0,.2-1.4,21.25-5.34,32.49-3.87,11-8.84,12-8.89,12l-.28,0v4.69h33.46v-4.69Z"/><path class="cls-2" d="M17.42,96.71c0-1.51-.46-3,.07-4,.44-.82,2-1.12,3.05-1.51,3.42-1.23,5.51-3.86,7-6.92,2.72-5.53,5.26-11.15,7.78-16.77,5-11.12,9.88-22.27,14.83-33.41a29.68,29.68,0,0,0,2.51-9.86c.08-1.15.58-1.51,1.63-1.57,2.24-.14,4.48-.31,6.71-.58a1.75,1.75,0,0,1,2.13,1.21q7,15.39,14,30.71c4.76,10.36,9.51,20.71,14.34,31a19,19,0,0,0,3.07,4.64,10.71,10.71,0,0,0,3.69,2.4,1.59,1.59,0,0,1,1.2,1.72c0,3.45.34,2.85-2.78,2.86-9.78,0-19.55,0-29.33,0-1.29,0-1.82-.37-1.62-1.65a2.06,2.06,0,0,0,0-.7c-.29-1.61.38-2.26,2-2.59,3.23-.65,4.71-3,3.84-6.12a31.73,31.73,0,0,0-2.45-5.92,5.37,5.37,0,0,0-5.07-3q-10.59,0-21.19,0a5.18,5.18,0,0,0-4.77,2.72,17.48,17.48,0,0,0-1.85,4.79c-.58,3.15.65,5.16,3.6,6.49a13.32,13.32,0,0,0,2.37.83c3,.74,2.94.72,2.94,3.78,0,1.12-.45,1.31-1.42,1.3-4.49,0-9,0-13.48,0H17.42ZM53.37,70.64h7.71c3.1,0,3.66-.86,2.36-3.62l-.06-.12q-4.43-9.52-8.86-19a13.07,13.07,0,0,0-1.22-1.78,9.61,9.61,0,0,0-1.36,1.79c-3,6.6-5.89,13.21-8.83,19.83-.9,2.05-.41,2.88,1.84,2.92C47.75,70.68,50.56,70.64,53.37,70.64Z"/><path class="cls-2" d="M57.06,116h0a.94.94,0,0,0-1.34,0h0c-4.18,3.76-26.38,24.5-26.38,39.8,0,13,9.2,14,12,14s12.45-1.49,12.45-13.24a.8.8,0,0,1,.8-.8.78.78,0,0,1,.8.78h2a.8.8,0,0,1,1.6,0c0,11.75,9.69,13.24,12.47,13.24s12-1,12-14C83.44,140.5,61.24,119.76,57.06,116Z"/><path class="cls-2" d="M63.89,176.88s-2.29-.44-4-5.47-2.43-14.73-2.43-14.81h-2c0,.09-.63,9.69-2.43,14.82s-4,5.46-4,5.47l-.13,0V179H64V176.9Z"/></svg>