<svg id="Layer_1" data-name="Layer 1" xmlns="http://www.w3.org/2000/svg" viewBox="0 0 251.43 334.21"><defs><style>.cls-1{fill:#f4f3ef;}.cls-2{fill:#272528;}</style></defs><rect class="cls-1" width="251.43" height="334.21" rx="21.02"/><path class="cls-2" d="M58.2,60.48c0-8.19-.11-16.37,0-24.55.1-5.23-2.56-7.34-7.27-8.28a7.3,7.3,0,0,1-1.65-.3c-.37-.17-.61-.65-.89-1,0-.06,0-.18,0-.28,0-3.83-.51-3.22,3.12-3.23,10.58,0,21.15,0,31.73,0,1.36,0,1.9.26,1.83,1.76-.14,2.55,0,2.55-2.52,3.16-4.27,1.05-6.14,3.4-6.15,7.77,0,13.75,0,27.5,0,41.24a23.18,23.18,0,0,1-2.06,10.5c-2.23,4.53-6.31,6.76-10.72,8.51a32.89,32.89,0,0,1-19.17,1.39c-4.31-.89-8.48-2.49-11.12-6.44-2.76-4.13-2.72-11.53,3-14.34,5.45-2.67,11,.45,11.44,6.52a49.18,49.18,0,0,0,.54,5.43c.55,3,2.51,4.8,5.12,4.87a3.55,3.55,0,0,0,3.74-2.39,14.84,14.84,0,0,0,.93-4.63c.09-8.56,0-17.11,0-25.67Z"/><path class="cls-2" d="M81.94,145.18a13.6,13.6,0,0,0-16.21-2.29h0a.92.92,0,0,1-.21.13l-.24.14a1.29,1.29,0,0,1-1.36-.27,1.27,1.27,0,0,1-.37-.91,1.22,1.22,0,0,1,.37-.9l0,0A14.23,14.23,0,0,0,66,139.28a13.62,13.62,0,1,0-19.26,0A13.69,13.69,0,0,0,49,141.05l0,0a1.28,1.28,0,0,1,0,1.81,1.26,1.26,0,0,1-.9.37h0a1.26,1.26,0,0,1-.9-.37l0,0a13.63,13.63,0,0,0-16.25,2.26,13.62,13.62,0,1,0,23.1,11.54.75.75,0,0,1,1.43.32c0,.08-.63,8.93-2.43,14.05s-4,5.47-4,5.48l-.13,0v2.13H64v-2.13l-.13,0s-2.29-.44-4-5.48-2.43-14-2.44-14a.76.76,0,0,1,1.44-.33,13.61,13.61,0,1,0,23.1-11.54Z"/><path class="cls-2" d="M224.68,242.5a29.86,29.86,0,0,0-35.55-5v0a2.27,2.27,0,0,1-.46.3l-.51.31a2.87,2.87,0,0,1-3-.61,2.82,2.82,0,0,1-.82-2,2.74,2.74,0,0,1,.83-2l-.1-.1a29.9,29.9,0,1,0-32.74.06l0,0a2.79,2.79,0,0,1,0,4,2.83,2.83,0,0,1-2,.83h0a2.83,2.83,0,0,1-2-.83l-.09.09a29.89,29.89,0,1,0,15,30.27,1.65,1.65,0,0,1,3.14.69c0,.19-1.39,19.58-5.34,30.83-3.86,11-8.83,12-8.88,12l-.28,0v4.69h33.46v-4.68l-.28-.05c-.05,0-5-1-8.88-12-3.94-11.25-5.33-30.64-5.34-30.81a1.65,1.65,0,0,1,3.15-.7,29.85,29.85,0,1,0,50.66-25.32Z"/></svg>