<svg id="Layer_1" data-name="Layer 1" xmlns="http://www.w3.org/2000/svg" viewBox="0 0 251.43 334.21"><defs><style>.cls-1{fill:#f4f3ef;}.cls-2{fill:#e12140;}</style></defs><rect class="cls-1" width="251.43" height="334.21" rx="21.02"/><path class="cls-2" d="M58.2,60.48c0-8.19-.11-16.37,0-24.55.1-5.23-2.56-7.34-7.27-8.28a7.3,7.3,0,0,1-1.65-.3c-.37-.17-.61-.65-.89-1,0-.06,0-.18,0-.28,0-3.83-.51-3.22,3.12-3.23,10.58,0,21.15,0,31.73,0,1.36,0,1.9.26,1.83,1.76-.14,2.55,0,2.55-2.52,3.16-4.27,1.05-6.14,3.4-6.15,7.77,0,13.75,0,27.5,0,41.24a23.18,23.18,0,0,1-2.06,10.5c-2.23,4.53-6.31,6.76-10.72,8.51a32.89,32.89,0,0,1-19.17,1.39c-4.31-.89-8.48-2.49-11.12-6.44-2.76-4.13-2.72-11.53,3-14.34,5.45-2.67,11,.45,11.44,6.52a49.18,49.18,0,0,0,.54,5.43c.55,3,2.51,4.8,5.12,4.87a3.55,3.55,0,0,0,3.74-2.39,14.84,14.84,0,0,0,.93-4.63c.09-8.56,0-17.11,0-25.67Z"/><path class="cls-2" d="M55.82,115.94c-3.27,8.32-19.86,27.49-26.68,30.73a.52.52,0,0,0,0,1C36,151,52.54,170.44,55.82,178.81a.63.63,0,0,0,1.14,0c3.28-8.37,19.87-27.83,26.68-31.18a.52.52,0,0,0,0-1c-6.82-3.24-23.41-22.41-26.68-30.73A.63.63,0,0,0,55.82,115.94Z"/><path class="cls-2" d="M167.4,178.39c-7.19,18.24-43.56,60.27-58.51,67.38a1.14,1.14,0,0,0,0,2.11c14.94,7.34,51.34,50,58.53,68.38a1.37,1.37,0,0,0,2.49,0c7.18-18.37,43.58-61,58.52-68.38a1.14,1.14,0,0,0,0-2.11c-14.95-7.11-51.32-49.14-58.5-67.38A1.37,1.37,0,0,0,167.4,178.39Z"/></svg>