<svg id="Layer_1" data-name="Layer 1" xmlns="http://www.w3.org/2000/svg" viewBox="0 0 251.43 334.21"><defs><style>.cls-1{fill:#f4f3ef;}.cls-2{fill:#e12140;}</style></defs><rect class="cls-1" width="251.43" height="334.21" rx="21.02"/><path class="cls-2" d="M58.2,60.48c0-8.19-.11-16.37,0-24.55.1-5.23-2.56-7.34-7.27-8.28a7.3,7.3,0,0,1-1.65-.3c-.37-.17-.61-.65-.89-1,0-.06,0-.18,0-.28,0-3.83-.51-3.22,3.12-3.23,10.58,0,21.15,0,31.73,0,1.36,0,1.9.26,1.83,1.76-.14,2.55,0,2.55-2.52,3.16-4.27,1.05-6.14,3.4-6.15,7.77,0,13.75,0,27.5,0,41.24a23.18,23.18,0,0,1-2.06,10.5c-2.23,4.53-6.31,6.76-10.72,8.51a32.89,32.89,0,0,1-19.17,1.39c-4.31-.89-8.48-2.49-11.12-6.44-2.76-4.13-2.72-11.53,3-14.34,5.45-2.67,11,.45,11.44,6.52a49.18,49.18,0,0,0,.54,5.43c.55,3,2.51,4.8,5.12,4.87a3.55,3.55,0,0,0,3.74-2.39,14.84,14.84,0,0,0,.93-4.63c.09-8.56,0-17.11,0-25.67Z"/><path class="cls-2" d="M70.15,118.28c-7.6,0-13.76,5.73-13.76,12.8,0-7.07-6.16-12.8-13.76-12.8S28.87,124,28.87,131.08v0c0,10,5.63,15.21,14.22,24.68A79.67,79.67,0,0,1,56,176.16a.46.46,0,0,0,.88,0,79.67,79.67,0,0,1,12.86-20.37c8.58-9.47,14.22-14.66,14.22-24.68v0C83.91,124,77.75,118.28,70.15,118.28Z"/><path class="cls-2" d="M198.82,183.52c-16.67,0-30.18,12.56-30.18,28.06,0-15.5-13.51-28.06-30.18-28.06s-30.17,12.56-30.17,28.06v.07c0,22,12.36,33.35,31.18,54.13,15.48,17.08,25.23,37.82,28.2,44.66a1,1,0,0,0,1.94,0c3-6.84,12.72-27.58,28.2-44.66C216.63,245,229,233.63,229,211.65v-.07C229,196.08,215.49,183.52,198.82,183.52Z"/></svg>