<svg id="Layer_1" data-name="Layer 1" xmlns="http://www.w3.org/2000/svg" viewBox="0 0 251.43 334.21"><defs><style>.cls-1{fill:#f4f3ef;}.cls-2{fill:#272528;}</style></defs><rect class="cls-1" width="251.43" height="334.21" rx="21.02"/><path class="cls-2" d="M58.2,60.48c0-8.19-.11-16.37,0-24.55.1-5.23-2.56-7.34-7.27-8.28a7.3,7.3,0,0,1-1.65-.3c-.37-.17-.61-.65-.89-1,0-.06,0-.18,0-.28,0-3.83-.51-3.22,3.12-3.23,10.58,0,21.15,0,31.73,0,1.36,0,1.9.26,1.83,1.76-.14,2.55,0,2.55-2.52,3.16-4.27,1.05-6.14,3.4-6.15,7.77,0,13.75,0,27.5,0,41.24a23.18,23.18,0,0,1-2.06,10.5c-2.23,4.53-6.31,6.76-10.72,8.51a32.89,32.89,0,0,1-19.17,1.39c-4.31-.89-8.48-2.49-11.12-6.44-2.76-4.13-2.72-11.53,3-14.34,5.45-2.67,11,.45,11.44,6.52a49.18,49.18,0,0,0,.54,5.43c.55,3,2.51,4.8,5.12,4.87a3.55,3.55,0,0,0,3.74-2.39,14.84,14.84,0,0,0,.93-4.63c.09-8.56,0-17.11,0-25.67Z"/><path class="cls-2" d="M57.06,116h0a.94.94,0,0,0-1.34,0h0c-4.18,3.76-26.38,24.5-26.38,39.8,0,13,9.2,14,12,14s12.45-1.49,12.45-13.24a.8.8,0,0,1,.8-.8.78.78,0,0,1,.8.78h2a.8.8,0,0,1,1.6,0c0,11.75,9.69,13.24,12.47,13.24s12-1,12-14C83.44,140.5,61.24,119.76,57.06,116Z"/><path class="cls-2" d="M63.89,176.88s-2.29-.44-4-5.47-2.43-14.73-2.43-14.81h-2c0,.09-.63,9.69-2.43,14.82s-4,5.46-4,5.47l-.13,0V179H64V176.9Z"/><path class="cls-2" d="M170.12,178.51h0a2.07,2.07,0,0,0-1.48-.61,2.05,2.05,0,0,0-1.47.61h0c-9.16,8.26-57.83,53.72-57.83,87.28,0,28.53,20.17,30.78,26.28,30.78s27.29-3.25,27.29-29a1.76,1.76,0,0,1,1.76-1.76,1.74,1.74,0,0,1,1.76,1.73h4.4a1.76,1.76,0,0,1,3.51,0c0,25.78,21.24,29,27.35,29S228,294.32,228,265.79C228,232.23,179.28,186.77,170.12,178.51Z"/><path class="cls-2" d="M185.09,312s-5-1-8.88-12c-3.94-11.24-5.33-32.29-5.34-32.46l-4.45,0c0,.2-1.4,21.25-5.34,32.49-3.87,11-8.84,12-8.89,12l-.28,0v4.69h33.46v-4.69Z"/></svg>