<svg id="Layer_1" data-name="Layer 1" xmlns="http://www.w3.org/2000/svg" viewBox="0 0 251.43 334.21"><defs><style>.cls-1{fill:#f4f3ef;}.cls-2{fill:#272528;}</style></defs><rect class="cls-1" width="251.43" height="334.21" rx="21.02"/><path class="cls-2" d="M52.15,96.65H16.84c0-1.24-.06-2.44,0-3.63,0-.3.52-.69.88-.81,1-.35,2-.53,2.95-.86,3.07-1,4.53-3.29,4.74-6.44,0-.47,0-.94,0-1.4q0-23.79,0-47.56c0-2.85-.55-5.49-3.23-7a16.1,16.1,0,0,0-4.21-1.43c-.88-.21-1.31-.49-1.24-1.45s0-1.95,0-3H52.14a35.79,35.79,0,0,1,0,3.59c0,.33-.6.74-1,.87-1,.34-2.11.43-3.1.82A6.69,6.69,0,0,0,43.54,35c0,9.08,0,18.15,0,27.22a8.53,8.53,0,0,0,.17,1.09c.51-.41.91-.67,1.24-1q13.11-13.47,26.18-27A8.79,8.79,0,0,0,73,32.39a2.87,2.87,0,0,0-1.62-3.83,16.54,16.54,0,0,0-3.17-1c-.74-.18-1.17-.41-1.12-1.27.06-1.06,0-2.13,0-3.26.58,0,1-.06,1.39-.06,8.52,0,17,0,25.55,0,1.23,0,1.63.33,1.6,1.57-.06,2.68,0,2.58-2.66,3.2a30,30,0,0,0-15,8Q72,41.83,66.06,48C63.3,51,63.15,53.1,65.5,56.4Q70.71,63.72,76,71c3.27,4.44,6.51,8.9,10,13.21a22.78,22.78,0,0,0,12.85,8,1.67,1.67,0,0,1,1,1.16,22.67,22.67,0,0,1,0,3.22h-39c0-1.25-.07-2.5.05-3.73,0-.34.62-.67,1-.93a17,17,0,0,0,3.37-2.31,4.32,4.32,0,0,0,.47-2.84,4.56,4.56,0,0,0-.9-2c-3.37-5-6.75-10-10.2-14.93a7.37,7.37,0,0,0-4.33-3.37,3.28,3.28,0,0,0-2.43.42c-2.42,1.9-4.22,4.22-4.23,7.53,0,3.51-.21,7-.09,10.52.14,4,2.11,6,7,7.11,1.38.31,1.75.85,1.61,2.12C52.08,94.9,52.15,95.69,52.15,96.65Z"/><path class="cls-2" d="M81.94,145.18a13.6,13.6,0,0,0-16.21-2.29h0a.92.92,0,0,1-.21.13l-.24.14a1.29,1.29,0,0,1-1.36-.27,1.27,1.27,0,0,1-.37-.91,1.22,1.22,0,0,1,.37-.9l0,0A14.23,14.23,0,0,0,66,139.28a13.62,13.62,0,1,0-19.26,0A13.69,13.69,0,0,0,49,141.05l0,0a1.28,1.28,0,0,1,0,1.81,1.26,1.26,0,0,1-.9.37h0a1.26,1.26,0,0,1-.9-.37l0,0a13.63,13.63,0,0,0-16.25,2.26,13.62,13.62,0,1,0,23.1,11.54.75.75,0,0,1,1.43.32c0,.08-.63,8.93-2.43,14.05s-4,5.47-4,5.48l-.13,0v2.13H64v-2.13l-.13,0s-2.29-.44-4-5.48-2.43-14-2.44-14a.76.76,0,0,1,1.44-.33,13.61,13.61,0,1,0,23.1-11.54Z"/><path class="cls-2" d="M224.68,242.5a29.86,29.86,0,0,0-35.55-5v0a2.27,2.27,0,0,1-.46.3l-.51.31a2.87,2.87,0,0,1-3-.61,2.82,2.82,0,0,1-.82-2,2.74,2.74,0,0,1,.83-2l-.1-.1a29.9,29.9,0,1,0-32.74.06l0,0a2.79,2.79,0,0,1,0,4,2.83,2.83,0,0,1-2,.83h0a2.83,2.83,0,0,1-2-.83l-.09.09a29.89,29.89,0,1,0,15,30.27,1.65,1.65,0,0,1,3.14.69c0,.19-1.39,19.58-5.34,30.83-3.86,11-8.83,12-8.88,12l-.28,0v4.69h33.46v-4.68l-.28-.05c-.05,0-5-1-8.88-12-3.94-11.25-5.33-30.64-5.34-30.81a1.65,1.65,0,0,1,3.15-.7,29.85,29.85,0,1,0,50.66-25.32Z"/></svg>