<svg id="Layer_1" data-name="Layer 1" xmlns="http://www.w3.org/2000/svg" viewBox="0 0 251.43 334.21"><defs><style>.cls-1{fill:#f4f3ef;}.cls-2{fill:#e12140;}</style></defs><rect class="cls-1" width="251.43" height="334.21" rx="21.02"/><path class="cls-2" d="M55.82,115.94c-3.27,8.32-19.86,27.49-26.68,30.73a.52.52,0,0,0,0,1C36,151,52.54,170.44,55.82,178.81a.63.63,0,0,0,1.14,0c3.28-8.37,19.87-27.83,26.68-31.18a.52.52,0,0,0,0-1c-6.82-3.24-23.41-22.41-26.68-30.73A.63.63,0,0,0,55.82,115.94Z"/><path class="cls-2" d="M167.4,178.39c-7.19,18.24-43.56,60.27-58.51,67.38a1.14,1.14,0,0,0,0,2.11c14.94,7.34,51.34,50,58.53,68.38a1.37,1.37,0,0,0,2.49,0c7.18-18.37,43.58-61,58.52-68.38a1.14,1.14,0,0,0,0-2.11c-14.95-7.11-51.32-49.14-58.5-67.38A1.37,1.37,0,0,0,167.4,178.39Z"/><path class="cls-2" d="M52.15,91H16.84c0-1.23-.06-2.43,0-3.62,0-.3.52-.69.88-.82,1-.34,2-.52,2.95-.85,3.07-1,4.53-3.3,4.74-6.44,0-.47,0-.94,0-1.41q0-23.78,0-47.56c0-2.84-.55-5.49-3.23-7a16.87,16.87,0,0,0-4.21-1.43c-.88-.21-1.31-.48-1.24-1.45s0-1.95,0-3H52.14a35.55,35.55,0,0,1,0,3.58c0,.34-.6.75-1,.88-1,.34-2.11.43-3.1.82a6.69,6.69,0,0,0-4.45,6.67c0,9.07,0,18.15,0,27.22a8.53,8.53,0,0,0,.17,1.09c.51-.42.91-.67,1.24-1q13.11-13.48,26.18-27A8.89,8.89,0,0,0,73,26.73a2.87,2.87,0,0,0-1.62-3.83,16.57,16.57,0,0,0-3.17-1c-.74-.17-1.17-.4-1.12-1.27.06-1.05,0-2.12,0-3.25.58,0,1-.07,1.39-.07,8.52,0,17,0,25.55,0,1.23,0,1.63.33,1.6,1.58-.06,2.67,0,2.58-2.66,3.2a30,30,0,0,0-15,8q-6,6.12-11.89,12.31c-2.76,2.92-2.91,5.07-.56,8.37Q70.71,58.06,76,65.28c3.27,4.44,6.51,8.91,10,13.22a22.78,22.78,0,0,0,12.85,8,1.67,1.67,0,0,1,1,1.16,22.64,22.64,0,0,1,0,3.22h-39c0-1.25-.07-2.5.05-3.74,0-.34.62-.66,1-.92a17,17,0,0,0,3.37-2.32,4.31,4.31,0,0,0,.47-2.84,4.58,4.58,0,0,0-.9-2c-3.37-5-6.75-10-10.2-14.93a7.33,7.33,0,0,0-4.33-3.37,3.28,3.28,0,0,0-2.43.42c-2.42,1.89-4.22,4.22-4.23,7.53,0,3.51-.21,7-.09,10.52.14,4,2.11,6,7,7.1,1.38.31,1.75.86,1.61,2.13C52.08,89.23,52.15,90,52.15,91Z"/></svg>