<svg id="Layer_1" data-name="Layer 1" xmlns="http://www.w3.org/2000/svg" viewBox="0 0 251.43 334.21"><defs><style>.cls-1{fill:#f4f3ef;}.cls-2{fill:#e12140;}</style></defs><rect class="cls-1" width="251.43" height="334.21" rx="21.02"/><path class="cls-2" d="M70.15,118.28c-7.6,0-13.76,5.73-13.76,12.8,0-7.07-6.16-12.8-13.76-12.8S28.87,124,28.87,131.08v0c0,10,5.63,15.21,14.22,24.68A79.67,79.67,0,0,1,56,176.16a.46.46,0,0,0,.88,0,79.67,79.67,0,0,1,12.86-20.37c8.58-9.47,14.22-14.66,14.22-24.68v0C83.91,124,77.75,118.28,70.15,118.28Z"/><path class="cls-2" d="M198.82,183.52c-16.67,0-30.18,12.56-30.18,28.06,0-15.5-13.51-28.06-30.18-28.06s-30.17,12.56-30.17,28.06v.07c0,22,12.36,33.35,31.18,54.13,15.48,17.08,25.23,37.82,28.2,44.66a1,1,0,0,0,1.94,0c3-6.84,12.72-27.58,28.2-44.66C216.63,245,229,233.63,229,211.65v-.07C229,196.08,215.49,183.52,198.82,183.52Z"/><path class="cls-2" d="M52.15,92.52H16.84c0-1.24-.06-2.44,0-3.63,0-.3.52-.69.88-.81,1-.35,2-.53,2.95-.86,3.07-1,4.53-3.29,4.74-6.44,0-.47,0-.94,0-1.4q0-23.79,0-47.56c0-2.85-.55-5.49-3.23-7a16.1,16.1,0,0,0-4.21-1.43c-.88-.21-1.31-.49-1.24-1.45s0-2,0-3H52.14a35.79,35.79,0,0,1,0,3.59c0,.33-.6.74-1,.87-1,.34-2.11.43-3.1.82a6.69,6.69,0,0,0-4.45,6.67c0,9.08,0,18.15,0,27.22a8.53,8.53,0,0,0,.17,1.09c.51-.41.91-.67,1.24-1q13.11-13.47,26.18-27A8.79,8.79,0,0,0,73,28.26a2.87,2.87,0,0,0-1.62-3.83,16.54,16.54,0,0,0-3.17-1C67.42,23.22,67,23,67,22.13c.06-1.06,0-2.13,0-3.26.58,0,1-.06,1.39-.06,8.52,0,17,0,25.55,0,1.23,0,1.63.33,1.6,1.57-.06,2.68,0,2.58-2.66,3.2A30,30,0,0,0,78,31.6q-6,6.1-11.89,12.31c-2.76,2.91-2.91,5.06-.56,8.36Q70.71,59.59,76,66.82c3.27,4.44,6.51,8.9,10,13.21a22.78,22.78,0,0,0,12.85,8,1.67,1.67,0,0,1,1,1.16,22.67,22.67,0,0,1,0,3.22h-39c0-1.25-.07-2.5.05-3.73,0-.34.62-.67,1-.93a17,17,0,0,0,3.37-2.31,4.32,4.32,0,0,0,.47-2.84,4.56,4.56,0,0,0-.9-2c-3.37-5-6.75-10-10.2-14.93a7.37,7.37,0,0,0-4.33-3.37,3.28,3.28,0,0,0-2.43.42c-2.42,1.9-4.22,4.22-4.23,7.53,0,3.51-.21,7-.09,10.52.14,4,2.11,6,7,7.11,1.38.31,1.75.85,1.61,2.12C52.08,90.77,52.15,91.56,52.15,92.52Z"/></svg>