<svg id="Layer_1" data-name="Layer 1" xmlns="http://www.w3.org/2000/svg" viewBox="0 0 251.43 334.21"><defs><style>.cls-1{fill:#f4f3ef;}.cls-2{fill:#272528;}</style></defs><rect class="cls-1" width="251.43" height="334.21" rx="21.02"/><path class="cls-2" d="M57.06,116h0a.94.94,0,0,0-1.34,0h0c-4.18,3.76-26.38,24.5-26.38,39.8,0,13,9.2,14,12,14s12.45-1.49,12.45-13.24a.8.8,0,0,1,.8-.8.78.78,0,0,1,.8.78h2a.8.8,0,0,1,1.6,0c0,11.75,9.69,13.24,12.47,13.24s12-1,12-14C83.44,140.5,61.24,119.76,57.06,116Z"/><path class="cls-2" d="M63.89,176.88s-2.29-.44-4-5.47-2.43-14.73-2.43-14.81h-2c0,.09-.63,9.69-2.43,14.82s-4,5.46-4,5.47l-.13,0V179H64V176.9Z"/><path class="cls-2" d="M170.12,178.51h0a2.07,2.07,0,0,0-1.48-.61,2.05,2.05,0,0,0-1.47.61h0c-9.16,8.26-57.83,53.72-57.83,87.28,0,28.53,20.17,30.78,26.28,30.78s27.29-3.25,27.29-29a1.76,1.76,0,0,1,1.76-1.76,1.74,1.74,0,0,1,1.76,1.73h4.4a1.76,1.76,0,0,1,3.51,0c0,25.78,21.24,29,27.35,29S228,294.32,228,265.79C228,232.23,179.28,186.77,170.12,178.51Z"/><path class="cls-2" d="M185.09,312s-5-1-8.88-12c-3.94-11.24-5.33-32.29-5.34-32.46l-4.45,0c0,.2-1.4,21.25-5.34,32.49-3.87,11-8.84,12-8.89,12l-.28,0v4.69h33.46v-4.69Z"/><path class="cls-2" d="M52.15,92.52H16.84c0-1.24-.06-2.44,0-3.63,0-.3.52-.69.88-.81,1-.35,2-.53,2.95-.86,3.07-1,4.53-3.29,4.74-6.44,0-.47,0-.94,0-1.4q0-23.79,0-47.56c0-2.85-.55-5.49-3.23-7a16.1,16.1,0,0,0-4.21-1.43c-.88-.21-1.31-.49-1.24-1.45s0-2,0-3H52.14a35.79,35.79,0,0,1,0,3.59c0,.33-.6.74-1,.87-1,.34-2.11.43-3.1.82a6.69,6.69,0,0,0-4.45,6.67c0,9.08,0,18.15,0,27.22a8.53,8.53,0,0,0,.17,1.09c.51-.41.91-.67,1.24-1q13.11-13.47,26.18-27A8.79,8.79,0,0,0,73,28.26a2.87,2.87,0,0,0-1.62-3.83,16.54,16.54,0,0,0-3.17-1C67.42,23.22,67,23,67,22.13c.06-1.06,0-2.13,0-3.26.58,0,1-.06,1.39-.06,8.52,0,17,0,25.55,0,1.23,0,1.63.33,1.6,1.57-.06,2.68,0,2.58-2.66,3.2A30,30,0,0,0,78,31.6q-6,6.1-11.89,12.31c-2.76,2.91-2.91,5.06-.56,8.36Q70.71,59.59,76,66.82c3.27,4.44,6.51,8.9,10,13.21a22.78,22.78,0,0,0,12.85,8,1.67,1.67,0,0,1,1,1.16,22.67,22.67,0,0,1,0,3.22h-39c0-1.25-.07-2.5.05-3.73,0-.34.62-.67,1-.93a17,17,0,0,0,3.37-2.31,4.32,4.32,0,0,0,.47-2.84,4.56,4.56,0,0,0-.9-2c-3.37-5-6.75-10-10.2-14.93a7.37,7.37,0,0,0-4.33-3.37,3.28,3.28,0,0,0-2.43.42c-2.42,1.9-4.22,4.22-4.23,7.53,0,3.51-.21,7-.09,10.52.14,4,2.11,6,7,7.11,1.38.31,1.75.85,1.61,2.12C52.08,90.77,52.15,91.56,52.15,92.52Z"/></svg>