<svg id="Layer_1" data-name="Layer 1" xmlns="http://www.w3.org/2000/svg" viewBox="0 0 251.43 334.21"><defs><style>.cls-1{fill:#f4f3ef;}.cls-2{fill:#272528;}</style></defs><rect class="cls-1" width="251.43" height="334.21" rx="21.02"/><path class="cls-2" d="M62.24,97.91c4.37,3.65,8.7,7.34,13.14,10.89a9.2,9.2,0,0,0,3.45,1.42A2.68,2.68,0,0,0,82.49,108a34.37,34.37,0,0,0,.55-5.28c.11-2.11.17-4.22,1.38-6.06a7.29,7.29,0,0,1,8.22-3,7.72,7.72,0,0,1,5.57,6.51c1.05,7.48-4.09,12.82-9.92,14.75-10.65,3.52-20.5,1.93-29.17-5.39-4.57-3.86-9-7.91-13.53-11.8a11.54,11.54,0,0,0-3.76-2.33c-2.37-.78-4,.56-4.71,3.45-.17.73-.22,1.48-.32,2.22a6.66,6.66,0,0,1-5.21,6,7.72,7.72,0,0,1-8.23-2.48A9.19,9.19,0,0,1,26.52,91.1c1.4-.82,2.89-1.49,4.48-2.3C30,87.86,29,87,28.05,86a36,36,0,0,1-9.63-23.19,41.08,41.08,0,0,1,2.69-18.13A36,36,0,0,1,39,25.59c11.07-5.42,22.57-6.31,34.15-2C85.47,28.2,93.59,37,96.26,50c2.23,10.86.8,21.32-5.51,30.76A36.69,36.69,0,0,1,75.06,93.9a39.91,39.91,0,0,1-12.62,3.57ZM77.16,65.56c-.17-8.87-1.34-16.21-4.35-23.17A29.41,29.41,0,0,0,64.36,30.7c-5.91-4.74-14.54-5-20.18,1.66a24,24,0,0,0-5.25,12.77,61.58,61.58,0,0,0,1,22.95c1.63,6.76,4.16,13.06,9.1,18.19a16.28,16.28,0,0,0,10.2,5.32c6.77.7,11.86-3.44,14.73-9.31C76.81,76.58,77.11,70.43,77.16,65.56Z"/><path class="cls-2" d="M81.94,145.18a13.6,13.6,0,0,0-16.21-2.29h0a.92.92,0,0,1-.21.13l-.24.14a1.29,1.29,0,0,1-1.36-.27,1.27,1.27,0,0,1-.37-.91,1.22,1.22,0,0,1,.37-.9l0,0A14.23,14.23,0,0,0,66,139.28a13.62,13.62,0,1,0-19.26,0A13.69,13.69,0,0,0,49,141.05l0,0a1.28,1.28,0,0,1,0,1.81,1.26,1.26,0,0,1-.9.37h0a1.26,1.26,0,0,1-.9-.37l0,0a13.63,13.63,0,0,0-16.25,2.26,13.62,13.62,0,1,0,23.1,11.54.75.75,0,0,1,1.43.32c0,.08-.63,8.93-2.43,14.05s-4,5.47-4,5.48l-.13,0v2.13H64v-2.13l-.13,0s-2.29-.44-4-5.48-2.43-14-2.44-14a.76.76,0,0,1,1.44-.33,13.61,13.61,0,1,0,23.1-11.54Z"/><path class="cls-2" d="M224.68,242.5a29.86,29.86,0,0,0-35.55-5v0a2.27,2.27,0,0,1-.46.3l-.51.31a2.87,2.87,0,0,1-3-.61,2.82,2.82,0,0,1-.82-2,2.74,2.74,0,0,1,.83-2l-.1-.1a29.9,29.9,0,1,0-32.74.06l0,0a2.79,2.79,0,0,1,0,4,2.83,2.83,0,0,1-2,.83h0a2.83,2.83,0,0,1-2-.83l-.09.09a29.89,29.89,0,1,0,15,30.27,1.65,1.65,0,0,1,3.14.69c0,.19-1.39,19.58-5.34,30.83-3.86,11-8.83,12-8.88,12l-.28,0v4.69h33.46v-4.68l-.28-.05c-.05,0-5-1-8.88-12-3.94-11.25-5.33-30.64-5.34-30.81a1.65,1.65,0,0,1,3.15-.7,29.85,29.85,0,1,0,50.66-25.32Z"/></svg>