<svg id="Layer_1" data-name="Layer 1" xmlns="http://www.w3.org/2000/svg" viewBox="0 0 251.43 334.21"><defs><style>.cls-1{fill:#f4f3ef;}.cls-2{fill:#e12140;}</style></defs><rect class="cls-1" width="251.43" height="334.21" rx="21.02"/><path class="cls-2" d="M55.82,115.94c-3.27,8.32-19.86,27.49-26.68,30.73a.52.52,0,0,0,0,1C36,151,52.54,170.44,55.82,178.81a.63.63,0,0,0,1.14,0c3.28-8.37,19.87-27.83,26.68-31.18a.52.52,0,0,0,0-1c-6.82-3.24-23.41-22.41-26.68-30.73A.63.63,0,0,0,55.82,115.94Z"/><path class="cls-2" d="M167.4,178.39c-7.19,18.24-43.56,60.27-58.51,67.38a1.14,1.14,0,0,0,0,2.11c14.94,7.34,51.34,50,58.53,68.38a1.37,1.37,0,0,0,2.49,0c7.18-18.37,43.58-61,58.52-68.38a1.14,1.14,0,0,0,0-2.11c-14.95-7.11-51.32-49.14-58.5-67.38A1.37,1.37,0,0,0,167.4,178.39Z"/><path class="cls-2" d="M62.24,92.25c4.37,3.64,8.7,7.34,13.14,10.89a9.2,9.2,0,0,0,3.45,1.42,2.68,2.68,0,0,0,3.66-2.25A34.63,34.63,0,0,0,83,97c.11-2.11.17-4.22,1.38-6.06a7.31,7.31,0,0,1,8.22-3,7.72,7.72,0,0,1,5.57,6.51c1.05,7.48-4.09,12.83-9.92,14.76-10.65,3.52-20.5,1.93-29.17-5.39C54.55,100,50.14,95.9,45.59,92a11.71,11.71,0,0,0-3.76-2.33c-2.37-.78-4,.57-4.71,3.46-.17.72-.22,1.48-.32,2.22a6.67,6.67,0,0,1-5.21,6,7.72,7.72,0,0,1-8.23-2.48,9.2,9.2,0,0,1,3.16-13.49c1.4-.81,2.89-1.48,4.48-2.3-1-.93-2.05-1.78-2.95-2.76a36,36,0,0,1-9.63-23.18,41.06,41.06,0,0,1,2.69-18.13A36,36,0,0,1,39,19.92c11.07-5.42,22.57-6.3,34.15-2,12.34,4.6,20.46,13.37,23.13,26.39,2.23,10.85.8,21.31-5.51,30.76A36.76,36.76,0,0,1,75.06,88.24a40.18,40.18,0,0,1-12.62,3.57ZM77.16,59.89C77,51,75.82,43.69,72.81,36.72A29.55,29.55,0,0,0,64.36,25c-5.91-4.73-14.54-5-20.18,1.67a24,24,0,0,0-5.25,12.76,61.63,61.63,0,0,0,1,23c1.63,6.76,4.16,13.06,9.1,18.18a16.25,16.25,0,0,0,10.2,5.33c6.77.7,11.86-3.44,14.73-9.31C76.81,70.92,77.11,64.76,77.16,59.89Z"/></svg>