<svg id="Layer_1" data-name="Layer 1" xmlns="http://www.w3.org/2000/svg" viewBox="0 0 251.43 334.21"><defs><style>.cls-1{fill:#f4f3ef;}.cls-2{fill:#e12140;}</style></defs><rect class="cls-1" width="251.43" height="334.21" rx="21.02"/><path class="cls-2" d="M70.15,118.28c-7.6,0-13.76,5.73-13.76,12.8,0-7.07-6.16-12.8-13.76-12.8S28.87,124,28.87,131.08v0c0,10,5.63,15.21,14.22,24.68A79.67,79.67,0,0,1,56,176.16a.46.46,0,0,0,.88,0,79.67,79.67,0,0,1,12.86-20.37c8.58-9.47,14.22-14.66,14.22-24.68v0C83.91,124,77.75,118.28,70.15,118.28Z"/><path class="cls-2" d="M198.82,183.52c-16.67,0-30.18,12.56-30.18,28.06,0-15.5-13.51-28.06-30.18-28.06s-30.17,12.56-30.17,28.06v.07c0,22,12.36,33.35,31.18,54.13,15.48,17.08,25.23,37.82,28.2,44.66a1,1,0,0,0,1.94,0c3-6.84,12.72-27.58,28.2-44.66C216.63,245,229,233.63,229,211.65v-.07C229,196.08,215.49,183.52,198.82,183.52Z"/><path class="cls-2" d="M62.24,93.78c4.37,3.65,8.7,7.34,13.14,10.89a9.2,9.2,0,0,0,3.45,1.42,2.68,2.68,0,0,0,3.66-2.25A34.37,34.37,0,0,0,83,98.56c.11-2.11.17-4.22,1.38-6.06a7.29,7.29,0,0,1,8.22-3A7.72,7.72,0,0,1,98.21,96c1.05,7.48-4.09,12.82-9.92,14.75-10.65,3.52-20.5,1.93-29.17-5.39-4.57-3.86-9-7.91-13.53-11.8a11.54,11.54,0,0,0-3.76-2.33c-2.37-.78-4,.56-4.71,3.45-.17.73-.22,1.48-.32,2.22a6.66,6.66,0,0,1-5.21,6,7.72,7.72,0,0,1-8.23-2.48A9.19,9.19,0,0,1,26.52,87c1.4-.82,2.89-1.49,4.48-2.3-1-.94-2.05-1.78-2.95-2.76a36,36,0,0,1-9.63-23.19,41.08,41.08,0,0,1,2.69-18.13A36,36,0,0,1,39,21.46c11.07-5.42,22.57-6.31,34.15-2,12.34,4.59,20.46,13.36,23.13,26.38,2.23,10.86.8,21.32-5.51,30.76A36.69,36.69,0,0,1,75.06,89.77a39.91,39.91,0,0,1-12.62,3.57ZM77.16,61.43c-.17-8.87-1.34-16.21-4.35-23.17a29.41,29.41,0,0,0-8.45-11.69c-5.91-4.74-14.54-5-20.18,1.66A24,24,0,0,0,38.93,41a61.58,61.58,0,0,0,1,23c1.63,6.76,4.16,13.06,9.1,18.19a16.28,16.28,0,0,0,10.2,5.32c6.77.7,11.86-3.44,14.73-9.31C76.81,72.45,77.11,66.29,77.16,61.43Z"/></svg>