<svg id="Layer_1" data-name="Layer 1" xmlns="http://www.w3.org/2000/svg" viewBox="0 0 251.43 334.21"><defs><style>.cls-1{fill:#f4f3ef;}.cls-2{fill:#272528;}</style></defs><rect class="cls-1" width="251.43" height="334.21" rx="21.02"/><path class="cls-2" d="M57.06,116h0a.94.94,0,0,0-1.34,0h0c-4.18,3.76-26.38,24.5-26.38,39.8,0,13,9.2,14,12,14s12.45-1.49,12.45-13.24a.8.8,0,0,1,.8-.8.78.78,0,0,1,.8.78h2a.8.8,0,0,1,1.6,0c0,11.75,9.69,13.24,12.47,13.24s12-1,12-14C83.44,140.5,61.24,119.76,57.06,116Z"/><path class="cls-2" d="M63.89,176.88s-2.29-.44-4-5.47-2.43-14.73-2.43-14.81h-2c0,.09-.63,9.69-2.43,14.82s-4,5.46-4,5.47l-.13,0V179H64V176.9Z"/><path class="cls-2" d="M170.12,178.51h0a2.07,2.07,0,0,0-1.48-.61,2.05,2.05,0,0,0-1.47.61h0c-9.16,8.26-57.83,53.72-57.83,87.28,0,28.53,20.17,30.78,26.28,30.78s27.29-3.25,27.29-29a1.76,1.76,0,0,1,1.76-1.76,1.74,1.74,0,0,1,1.76,1.73h4.4a1.76,1.76,0,0,1,3.51,0c0,25.78,21.24,29,27.35,29S228,294.32,228,265.79C228,232.23,179.28,186.77,170.12,178.51Z"/><path class="cls-2" d="M185.09,312s-5-1-8.88-12c-3.94-11.24-5.33-32.29-5.34-32.46l-4.45,0c0,.2-1.4,21.25-5.34,32.49-3.87,11-8.84,12-8.89,12l-.28,0v4.69h33.46v-4.69Z"/><path class="cls-2" d="M62.24,93.78c4.37,3.65,8.7,7.34,13.14,10.89a9.2,9.2,0,0,0,3.45,1.42,2.68,2.68,0,0,0,3.66-2.25A34.37,34.37,0,0,0,83,98.56c.11-2.11.17-4.22,1.38-6.06a7.29,7.29,0,0,1,8.22-3A7.72,7.72,0,0,1,98.21,96c1.05,7.48-4.09,12.82-9.92,14.75-10.65,3.52-20.5,1.93-29.17-5.39-4.57-3.86-9-7.91-13.53-11.8a11.54,11.54,0,0,0-3.76-2.33c-2.37-.78-4,.56-4.71,3.45-.17.73-.22,1.48-.32,2.22a6.66,6.66,0,0,1-5.21,6,7.72,7.72,0,0,1-8.23-2.48A9.19,9.19,0,0,1,26.52,87c1.4-.82,2.89-1.49,4.48-2.3-1-.94-2.05-1.78-2.95-2.76a36,36,0,0,1-9.63-23.19,41.08,41.08,0,0,1,2.69-18.13A36,36,0,0,1,39,21.46c11.07-5.42,22.57-6.31,34.15-2,12.34,4.59,20.46,13.36,23.13,26.38,2.23,10.86.8,21.32-5.51,30.76A36.69,36.69,0,0,1,75.06,89.77a39.91,39.91,0,0,1-12.62,3.57ZM77.16,61.43c-.17-8.87-1.34-16.21-4.35-23.17a29.41,29.41,0,0,0-8.45-11.69c-5.91-4.74-14.54-5-20.18,1.66A24,24,0,0,0,38.93,41a61.58,61.58,0,0,0,1,23c1.63,6.76,4.16,13.06,9.1,18.19a16.28,16.28,0,0,0,10.2,5.32c6.77.7,11.86-3.44,14.73-9.31C76.81,72.45,77.11,66.29,77.16,61.43Z"/></svg>