<svg id="Layer_1" data-name="Layer 1" xmlns="http://www.w3.org/2000/svg" viewBox="0 0 251.43 334.21"><defs><style>.cls-1{fill:#f4f3ef;}.cls-2{fill:#272528;}</style></defs><rect class="cls-1" width="251.43" height="334.21" rx="21.02"/><path class="cls-2" d="M121.22,60c-.17,9.05-2,17.26-6.72,24.64A30.11,30.11,0,0,1,97.73,97.5a31.35,31.35,0,0,1-17.18.4c-8.76-2.2-15.2-7.5-19.6-15.34-4.69-8.37-6.07-17.46-5.23-26.83C56.59,46,60,37.19,67.18,30.23c6.69-6.45,14.79-8.83,23.9-8.15,11.08.84,19,6.59,24.49,16C119.57,45,121.07,52.5,121.22,60Zm-17.41,1.21a73.76,73.76,0,0,0-1.7-17.69c-.94-3.86-2-7.7-4.52-10.91-4.6-5.87-14.23-5.84-18.7.12-3.37,4.48-4.45,9.84-5.29,15.19a80.34,80.34,0,0,0,.51,27.75,32.19,32.19,0,0,0,3.93,11c3.28,5.29,9.14,6.77,14.57,4.92,4-1.39,6.19-4.65,7.67-8.42C103.16,75.82,103.73,68.11,103.81,61.19Z"/><path class="cls-2" d="M21.82,36c0-1.42-.06-2.67,0-3.91a1.55,1.55,0,0,1,.85-.95q9.85-4.41,19.74-8.74A4.51,4.51,0,0,1,43.93,22c2.23-.13,4.15.58,4.14,3.61C48,44.86,48,64.13,48,83.4a19.36,19.36,0,0,0,.19,3.49c.59,3.21,3.1,4.2,5.89,4.76,1.37.27,2.76.44,4.22.67v4.26h-37v-4.2c1.84-.34,3.68-.58,5.48-1,3.61-.9,4.94-2.49,5.08-6.21.13-3.5.08-7,.09-10.52q0-16.48,0-33a20.2,20.2,0,0,0-.35-4c-.4-2-1.53-2.74-3.54-2.52S24.12,35.65,21.82,36Z"/><path class="cls-2" d="M81.94,145.18a13.6,13.6,0,0,0-16.21-2.29h0a.92.92,0,0,1-.21.13l-.24.14a1.29,1.29,0,0,1-1.36-.27,1.27,1.27,0,0,1-.37-.91,1.22,1.22,0,0,1,.37-.9l0,0A14.23,14.23,0,0,0,66,139.28a13.62,13.62,0,1,0-19.26,0A13.69,13.69,0,0,0,49,141.05l0,0a1.28,1.28,0,0,1,0,1.81,1.26,1.26,0,0,1-.9.37h0a1.26,1.26,0,0,1-.9-.37l0,0a13.63,13.63,0,0,0-16.25,2.26,13.62,13.62,0,1,0,23.1,11.54.75.75,0,0,1,1.43.32c0,.08-.63,8.93-2.43,14.05s-4,5.47-4,5.48l-.13,0v2.13H64v-2.13l-.13,0s-2.29-.44-4-5.48-2.43-14-2.44-14a.76.76,0,0,1,1.44-.33,13.61,13.61,0,1,0,23.1-11.54Z"/><path class="cls-2" d="M224.68,242.5a29.86,29.86,0,0,0-35.55-5v0a2.27,2.27,0,0,1-.46.3l-.51.31a2.87,2.87,0,0,1-3-.61,2.82,2.82,0,0,1-.82-2,2.74,2.74,0,0,1,.83-2l-.1-.1a29.9,29.9,0,1,0-32.74.06l0,0a2.79,2.79,0,0,1,0,4,2.83,2.83,0,0,1-2,.83h0a2.83,2.83,0,0,1-2-.83l-.09.09a29.89,29.89,0,1,0,15,30.27,1.65,1.65,0,0,1,3.14.69c0,.19-1.39,19.58-5.34,30.83-3.86,11-8.83,12-8.88,12l-.28,0v4.69h33.46v-4.68l-.28-.05c-.05,0-5-1-8.88-12-3.94-11.25-5.33-30.64-5.34-30.81a1.65,1.65,0,0,1,3.15-.7,29.85,29.85,0,1,0,50.66-25.32Z"/></svg>