<svg id="Layer_1" data-name="Layer 1" xmlns="http://www.w3.org/2000/svg" viewBox="0 0 251.43 334.21"><defs><style>.cls-1{fill:#f4f3ef;}.cls-2{fill:#e12140;}</style></defs><rect class="cls-1" width="251.43" height="334.21" rx="21.02"/><path class="cls-2" d="M121.22,60c-.17,9.05-2,17.26-6.72,24.64A30.11,30.11,0,0,1,97.73,97.5a31.35,31.35,0,0,1-17.18.4c-8.76-2.2-15.2-7.5-19.6-15.34-4.69-8.37-6.07-17.46-5.23-26.83C56.59,46,60,37.19,67.18,30.23c6.69-6.45,14.79-8.83,23.9-8.15,11.08.84,19,6.59,24.49,16C119.57,45,121.07,52.5,121.22,60Zm-17.41,1.21a73.76,73.76,0,0,0-1.7-17.69c-.94-3.86-2-7.7-4.52-10.91-4.6-5.87-14.23-5.84-18.7.12-3.37,4.48-4.45,9.84-5.29,15.19a80.34,80.34,0,0,0,.51,27.75,32.19,32.19,0,0,0,3.93,11c3.28,5.29,9.14,6.77,14.57,4.92,4-1.39,6.19-4.65,7.67-8.42C103.16,75.82,103.73,68.11,103.81,61.19Z"/><path class="cls-2" d="M21.82,36c0-1.42-.06-2.67,0-3.91a1.55,1.55,0,0,1,.85-.95q9.85-4.41,19.74-8.74A4.51,4.51,0,0,1,43.93,22c2.23-.13,4.15.58,4.14,3.61C48,44.86,48,64.13,48,83.4a19.36,19.36,0,0,0,.19,3.49c.59,3.21,3.1,4.2,5.89,4.76,1.37.27,2.76.44,4.22.67v4.26h-37v-4.2c1.84-.34,3.68-.58,5.48-1,3.61-.9,4.94-2.49,5.08-6.21.13-3.5.08-7,.09-10.52q0-16.48,0-33a20.2,20.2,0,0,0-.35-4c-.4-2-1.53-2.74-3.54-2.52S24.12,35.65,21.82,36Z"/><path class="cls-2" d="M55.82,115.94c-3.27,8.32-19.86,27.49-26.68,30.73a.52.52,0,0,0,0,1C36,151,52.54,170.44,55.82,178.81a.63.63,0,0,0,1.14,0c3.28-8.37,19.87-27.83,26.68-31.18a.52.52,0,0,0,0-1c-6.82-3.24-23.41-22.41-26.68-30.73A.63.63,0,0,0,55.82,115.94Z"/><path class="cls-2" d="M167.4,178.39c-7.19,18.24-43.56,60.27-58.51,67.38a1.14,1.14,0,0,0,0,2.11c14.94,7.34,51.34,50,58.53,68.38a1.37,1.37,0,0,0,2.49,0c7.18-18.37,43.58-61,58.52-68.38a1.14,1.14,0,0,0,0-2.11c-14.95-7.11-51.32-49.14-58.5-67.38A1.37,1.37,0,0,0,167.4,178.39Z"/></svg>