<svg id="Layer_1" data-name="Layer 1" xmlns="http://www.w3.org/2000/svg" viewBox="0 0 251.43 334.21"><defs><style>.cls-1{fill:#f4f3ef;}.cls-2{fill:#e12140;}</style></defs><rect class="cls-1" width="251.43" height="334.21" rx="21.02"/><path class="cls-2" d="M121.22,60c-.17,9.05-2,17.26-6.72,24.64A30.11,30.11,0,0,1,97.73,97.5a31.35,31.35,0,0,1-17.18.4c-8.76-2.2-15.2-7.5-19.6-15.34-4.69-8.37-6.07-17.46-5.23-26.83C56.59,46,60,37.19,67.18,30.23c6.69-6.45,14.79-8.83,23.9-8.15,11.08.84,19,6.59,24.49,16C119.57,45,121.07,52.5,121.22,60Zm-17.41,1.21a73.76,73.76,0,0,0-1.7-17.69c-.94-3.86-2-7.7-4.52-10.91-4.6-5.87-14.23-5.84-18.7.12-3.37,4.48-4.45,9.84-5.29,15.19a80.34,80.34,0,0,0,.51,27.75,32.19,32.19,0,0,0,3.93,11c3.28,5.29,9.14,6.77,14.57,4.92,4-1.39,6.19-4.65,7.67-8.42C103.16,75.82,103.73,68.11,103.81,61.19Z"/><path class="cls-2" d="M21.82,36c0-1.42-.06-2.67,0-3.91a1.55,1.55,0,0,1,.85-.95q9.85-4.41,19.74-8.74A4.51,4.51,0,0,1,43.93,22c2.23-.13,4.15.58,4.14,3.61C48,44.86,48,64.13,48,83.4a19.36,19.36,0,0,0,.19,3.49c.59,3.21,3.1,4.2,5.89,4.76,1.37.27,2.76.44,4.22.67v4.26h-37v-4.2c1.84-.34,3.68-.58,5.48-1,3.61-.9,4.94-2.49,5.08-6.21.13-3.5.08-7,.09-10.52q0-16.48,0-33a20.2,20.2,0,0,0-.35-4c-.4-2-1.53-2.74-3.54-2.52S24.12,35.65,21.82,36Z"/><path class="cls-2" d="M70.15,118.28c-7.6,0-13.76,5.73-13.76,12.8,0-7.07-6.16-12.8-13.76-12.8S28.87,124,28.87,131.08v0c0,10,5.63,15.21,14.22,24.68A79.67,79.67,0,0,1,56,176.16a.46.46,0,0,0,.88,0,79.67,79.67,0,0,1,12.86-20.37c8.58-9.47,14.22-14.66,14.22-24.68v0C83.91,124,77.75,118.28,70.15,118.28Z"/><path class="cls-2" d="M198.82,183.52c-16.67,0-30.18,12.56-30.18,28.06,0-15.5-13.51-28.06-30.18-28.06s-30.17,12.56-30.17,28.06v.07c0,22,12.36,33.35,31.18,54.13,15.48,17.08,25.23,37.82,28.2,44.66a1,1,0,0,0,1.94,0c3-6.84,12.72-27.58,28.2-44.66C216.63,245,229,233.63,229,211.65v-.07C229,196.08,215.49,183.52,198.82,183.52Z"/></svg>