<svg id="Layer_1" data-name="Layer 1" xmlns="http://www.w3.org/2000/svg" viewBox="0 0 251.43 334.21"><defs><style>.cls-1{fill:#f4f3ef;}.cls-2{fill:#272528;}</style></defs><rect class="cls-1" width="251.43" height="334.21" rx="21.02"/><path class="cls-2" d="M121.22,60c-.17,9.05-2,17.26-6.72,24.64A30.11,30.11,0,0,1,97.73,97.5a31.35,31.35,0,0,1-17.18.4c-8.76-2.2-15.2-7.5-19.6-15.34-4.69-8.37-6.07-17.46-5.23-26.83C56.59,46,60,37.19,67.18,30.23c6.69-6.45,14.79-8.83,23.9-8.15,11.08.84,19,6.59,24.49,16C119.57,45,121.07,52.5,121.22,60Zm-17.41,1.21a73.76,73.76,0,0,0-1.7-17.69c-.94-3.86-2-7.7-4.52-10.91-4.6-5.87-14.23-5.84-18.7.12-3.37,4.48-4.45,9.84-5.29,15.19a80.34,80.34,0,0,0,.51,27.75,32.19,32.19,0,0,0,3.93,11c3.28,5.29,9.14,6.77,14.57,4.92,4-1.39,6.19-4.65,7.67-8.42C103.16,75.82,103.73,68.11,103.81,61.19Z"/><path class="cls-2" d="M21.82,36c0-1.42-.06-2.67,0-3.91a1.55,1.55,0,0,1,.85-.95q9.85-4.41,19.74-8.74A4.51,4.51,0,0,1,43.93,22c2.23-.13,4.15.58,4.14,3.61C48,44.86,48,64.13,48,83.4a19.36,19.36,0,0,0,.19,3.49c.59,3.21,3.1,4.2,5.89,4.76,1.37.27,2.76.44,4.22.67v4.26h-37v-4.2c1.84-.34,3.68-.58,5.48-1,3.61-.9,4.94-2.49,5.08-6.21.13-3.5.08-7,.09-10.52q0-16.48,0-33a20.2,20.2,0,0,0-.35-4c-.4-2-1.53-2.74-3.54-2.52S24.12,35.65,21.82,36Z"/><path class="cls-2" d="M57.06,116h0a.94.94,0,0,0-1.34,0h0c-4.18,3.76-26.38,24.5-26.38,39.8,0,13,9.2,14,12,14s12.45-1.49,12.45-13.24a.8.8,0,0,1,.8-.8.78.78,0,0,1,.8.78h2a.8.8,0,0,1,1.6,0c0,11.75,9.69,13.24,12.47,13.24s12-1,12-14C83.44,140.5,61.24,119.76,57.06,116Z"/><path class="cls-2" d="M63.89,176.88s-2.29-.44-4-5.47-2.43-14.73-2.43-14.81h-2c0,.09-.63,9.69-2.43,14.82s-4,5.46-4,5.47l-.13,0V179H64V176.9Z"/><path class="cls-2" d="M170.12,178.51h0a2.07,2.07,0,0,0-1.48-.61,2.05,2.05,0,0,0-1.47.61h0c-9.16,8.26-57.83,53.72-57.83,87.28,0,28.53,20.17,30.78,26.28,30.78s27.29-3.25,27.29-29a1.76,1.76,0,0,1,1.76-1.76,1.74,1.74,0,0,1,1.76,1.73h4.4a1.76,1.76,0,0,1,3.51,0c0,25.78,21.24,29,27.35,29S228,294.32,228,265.79C228,232.23,179.28,186.77,170.12,178.51Z"/><path class="cls-2" d="M185.09,312s-5-1-8.88-12c-3.94-11.24-5.33-32.29-5.34-32.46l-4.45,0c0,.2-1.4,21.25-5.34,32.49-3.87,11-8.84,12-8.89,12l-.28,0v4.69h33.46v-4.69Z"/></svg>