<?xml version="1.0" encoding="utf-8"?>
<!-- Generator: Adobe Illustrator 25.0.1, SVG Export Plug-In . SVG Version: 6.00 Build 0)  -->
<svg version="1.1" id="Layer_1" xmlns="http://www.w3.org/2000/svg" xmlns:xlink="http://www.w3.org/1999/xlink" x="0px" y="0px"
	 viewBox="0 0 75 75" style="enable-background:new 0 0 75 75;" xml:space="preserve">
<style type="text/css">
	.st0{fill:#FFFFFF;}
	.st1{fill:url(#SVGID_1_);}
	.st2{fill:#00BC70;}
	.st3{fill:url(#SVGID_2_);}
	.st4{fill:#3A8DDE;}
	.st5{clip-path:url(#SVGID_4_);}
	.st6{clip-path:url(#SVGID_6_);}
</style>
<g>
	<g>
		<circle class="st4" cx="37.5" cy="37.5" r="37.5"/>
	</g>
	<g>
		<defs>
			<circle id="SVGID_5_" cx="37.5" cy="37.5" r="37.5"/>
		</defs>
		<clipPath id="SVGID_1_">
			<use xlink:href="#SVGID_5_"  style="overflow:visible;"/>
		</clipPath>
		<g style="clip-path:url(#SVGID_1_);">
			<g>
				<polygon class="st0" points="96.37,30.07 50.36,30.07 73.37,-9.77 60.51,-17.2 37.5,22.65 14.49,-17.2 1.63,-9.77 24.64,30.07 
					-21.37,30.07 -21.37,44.93 24.64,44.93 1.63,84.77 14.49,92.2 37.5,52.35 60.51,92.2 73.37,84.77 50.36,44.93 96.37,44.93 				
					"/>
			</g>
		</g>
	</g>
	<g>
		<circle class="st4" cx="37.5" cy="37.5" r="25.14"/>
		<path class="st0" d="M37.5,63.39c-14.27,0-25.89-11.61-25.89-25.89S23.23,11.61,37.5,11.61c14.27,0,25.89,11.61,25.89,25.89
			S51.77,63.39,37.5,63.39z M37.5,13.11c-13.45,0-24.39,10.94-24.39,24.39S24.05,61.89,37.5,61.89c13.45,0,24.39-10.94,24.39-24.39
			S50.95,13.11,37.5,13.11z"/>
	</g>
</g>
</svg>
