<?xml version="1.0" encoding="utf-8"?>
<!-- Generator: Adobe Illustrator 25.0.1, SVG Export Plug-In . SVG Version: 6.00 Build 0)  -->
<svg version="1.1" id="Layer_1" xmlns="http://www.w3.org/2000/svg" xmlns:xlink="http://www.w3.org/1999/xlink" x="0px" y="0px"
	 viewBox="0 0 50 50" style="enable-background:new 0 0 50 50;" xml:space="preserve">
<style type="text/css">
	.st0{fill:#FFFFFF;}
	.st1{fill:url(#SVGID_1_);}
	.st2{fill:#00BC70;}
	.st3{fill:url(#SVGID_2_);}
	.st4{fill:#3A8DDE;}
	.st5{clip-path:url(#SVGID_4_);}
	.st6{clip-path:url(#SVGID_6_);}
</style>
<g>
	<path class="st0" d="M45.67,20.67H29.33V4.33C29.33,1.95,27.38,0,25,0h0c-2.38,0-4.33,1.95-4.33,4.33v16.35H4.33
		C1.95,20.67,0,22.62,0,25l0,0c0,2.38,1.95,4.33,4.33,4.33h16.35v16.35c0,2.38,1.95,4.33,4.33,4.33h0c2.38,0,4.33-1.95,4.33-4.33
		V29.33h16.35c2.38,0,4.33-1.95,4.33-4.33l0,0C50,22.62,48.05,20.67,45.67,20.67z"/>
</g>
</svg>
